{"glyphs":{"\u0000":{"ha":0,"x_min":0,"x_max":0,"o":""},"\r":{"ha":347,"x_min":0,"x_max":0,"o":""}," ":{"ha":347,"x_min":0,"x_max":0,"o":""},"E":{"ha":610,"x_min":0,"x_max":568,"o":"m 131 779 q 144 569 138 672 q 157 363 150 467 q 168 366 164 365 q 176 369 172 367 q 277 410 225 400 q 383 428 329 421 q 417 428 400 431 q 450 417 435 426 q 483 378 474 401 q 486 329 493 356 q 457 288 479 304 q 406 269 435 272 q 353 266 379 268 q 300 260 326 264 q 240 246 269 254 q 183 224 211 238 q 169 210 169 217 q 171 193 168 204 q 178 178 174 182 q 194 174 182 174 q 299 174 247 174 q 404 174 351 175 q 448 172 426 174 q 492 168 469 171 q 535 156 514 167 q 560 133 551 147 q 568 103 568 118 q 560 73 568 88 q 536 50 553 58 q 485 35 513 35 q 372 23 426 32 q 260 6 317 14 q 125 11 189 -3 q 42 53 71 22 q 6 140 14 85 q 1 174 3 157 q 0 210 0 192 q 1 399 0 306 q 3 589 1 493 q 6 686 4 638 q 10 783 7 735 q 13 803 10 792 q 69 879 18 858 q 126 899 97 892 q 186 913 156 907 q 310 930 249 924 q 433 933 371 936 q 461 932 447 933 q 489 928 475 931 q 533 907 515 924 q 556 867 551 890 q 538 799 563 826 q 472 772 514 771 q 459 772 465 772 q 446 775 453 772 q 368 786 407 786 q 289 786 329 786 q 228 785 258 785 q 168 783 199 785 q 149 782 158 783 q 131 779 140 781 m 146 40 q 104 67 125 54 q 68 101 83 79 q 46 147 53 122 q 32 199 39 171 q 30 148 24 176 q 53 94 36 119 q 94 53 69 69 q 146 40 118 38 m 40 783 q 51 808 47 796 q 64 832 56 821 q 81 851 71 843 q 103 869 92 860 q 72 862 86 869 q 49 842 58 854 q 38 813 40 829 q 40 783 35 797 m 469 60 q 529 75 500 46 q 542 117 550 96 q 510 81 532 90 q 469 60 489 72 m 433 800 q 461 791 449 790 q 486 794 474 792 q 506 801 497 797 q 519 817 515 806 q 478 809 499 813 q 433 800 457 806 m 376 296 q 430 299 408 289 q 456 332 451 310 q 417 315 436 324 q 376 296 399 307 z "},"F":{"ha":554,"x_min":0,"x_max":514,"o":"m 296 943 q 308 938 303 940 q 318 936 313 936 q 392 922 356 931 q 464 897 429 914 q 478 891 471 894 q 492 882 485 888 q 512 840 514 865 q 486 800 510 815 q 456 788 472 790 q 425 788 440 786 q 352 790 389 789 q 279 793 315 792 q 242 790 260 794 q 208 778 225 785 q 175 738 179 764 q 171 695 174 717 q 171 654 168 674 q 181 534 176 593 q 183 415 185 475 q 184 401 183 408 q 186 386 185 394 q 199 390 193 389 q 210 393 204 390 q 261 409 235 404 q 315 417 288 414 q 371 408 344 421 q 398 386 388 400 q 410 353 408 372 q 379 288 414 310 q 346 273 364 276 q 310 265 328 269 q 213 240 263 256 q 196 235 201 238 q 188 228 190 232 q 184 219 185 225 q 183 203 183 213 l 183 126 q 160 32 185 76 q 105 -6 140 -3 q 44 22 69 -8 q 17 70 26 46 q 6 122 8 94 q 0 253 0 189 q 3 383 0 317 q 2 446 4 415 q 1 508 0 476 q 7 629 4 569 q 17 750 10 689 q 69 871 24 824 q 188 932 115 918 q 210 938 199 935 q 232 943 221 940 l 296 943 m 54 749 q 65 780 61 765 q 76 806 69 794 q 113 856 90 831 q 134 874 122 865 q 160 893 146 882 q 116 879 138 893 q 78 843 94 865 q 55 796 63 821 q 54 749 47 771 m 40 133 q 37 133 38 133 q 33 132 36 132 q 33 119 33 125 q 33 106 32 113 q 47 63 38 82 q 75 31 56 44 q 95 22 85 24 q 118 29 106 21 q 87 46 101 38 q 65 71 72 54 q 40 133 50 101 m 315 293 q 353 299 339 288 q 379 325 368 310 q 389 349 386 336 q 378 378 392 361 q 373 346 379 358 q 357 325 367 333 q 336 309 347 317 q 315 293 325 301 m 414 807 q 476 818 450 793 q 487 831 485 825 q 486 843 489 836 l 414 807 z "},"G":{"ha":636,"x_min":-17,"x_max":594,"o":"m 433 86 q 412 70 421 78 q 392 57 403 63 q 213 53 303 7 q 117 118 160 79 q 51 213 75 157 q 33 268 40 240 q 18 324 25 296 q 19 604 -17 461 q 63 726 36 668 q 133 833 89 785 q 208 902 168 874 q 301 940 249 931 q 405 942 354 950 q 500 897 456 935 q 544 796 547 857 q 535 764 544 778 q 511 746 526 750 q 456 761 479 736 q 443 776 447 772 q 428 789 436 783 q 413 797 421 794 q 358 803 385 804 q 307 779 331 801 q 262 727 281 756 q 235 664 243 699 q 217 588 226 625 q 204 511 208 550 q 206 411 199 461 q 232 314 213 361 q 264 257 244 282 q 311 213 283 232 q 335 203 326 203 q 356 214 343 203 q 380 240 368 226 q 401 268 392 253 q 451 353 428 310 q 489 444 474 396 q 539 482 501 485 q 585 440 574 479 q 589 419 588 429 q 592 399 590 410 q 594 313 594 356 q 590 226 593 269 q 588 153 588 190 q 586 81 589 117 q 579 35 586 54 q 549 0 569 11 q 501 -8 529 -11 q 460 11 478 -6 q 439 53 443 28 q 433 86 436 64 m 124 189 q 118 185 121 188 q 119 178 119 182 q 122 172 119 175 q 254 72 168 96 q 265 70 260 69 q 276 71 269 71 q 279 79 276 74 q 124 189 183 110 m 306 913 q 260 903 285 913 q 215 876 236 893 q 179 839 194 860 q 160 799 164 818 q 192 831 176 815 q 226 861 208 847 q 264 887 244 875 q 306 913 283 899 m 465 94 q 483 24 450 56 q 532 14 507 3 q 509 28 521 21 q 490 44 497 35 q 477 69 482 56 q 465 94 472 82 m 450 813 q 488 775 453 786 q 506 774 500 772 q 519 783 513 775 q 485 798 501 790 q 450 813 468 806 z "},"H":{"ha":565,"x_min":-1,"x_max":524,"o":"m 169 526 q 263 545 217 536 q 357 565 308 554 q 359 610 358 588 q 363 657 360 633 q 371 742 367 700 q 379 826 375 783 q 383 854 382 840 q 388 882 385 868 q 407 920 392 906 q 446 935 422 935 q 485 922 468 936 q 506 883 503 907 q 515 811 511 847 q 521 739 518 775 q 524 625 524 682 q 524 510 524 568 q 522 380 522 444 q 518 250 521 315 q 510 160 515 206 q 497 71 504 115 q 488 40 494 54 q 465 14 481 25 q 416 3 442 -3 q 378 35 390 10 q 369 62 372 49 q 364 89 365 75 q 351 229 356 160 q 349 369 346 299 l 349 406 q 263 401 304 411 q 181 386 222 392 q 181 347 178 365 q 185 311 183 329 q 187 274 186 292 q 188 236 188 256 q 180 196 188 215 q 160 160 172 176 q 96 127 135 128 q 32 158 57 126 q 6 211 13 183 q 1 269 -1 239 q 7 426 4 349 q 13 582 10 503 q 19 672 15 628 q 28 761 24 717 q 42 797 31 783 q 69 814 53 810 q 114 809 94 821 q 140 772 133 797 q 156 698 151 736 q 164 622 161 660 q 167 574 165 599 q 169 526 168 550 m 29 261 q 26 260 26 261 q 24 260 25 260 q 26 235 25 247 q 31 210 28 222 q 81 156 44 169 q 100 151 90 151 q 121 161 110 151 q 85 176 101 167 q 60 200 69 185 q 43 231 50 215 q 29 261 36 246 m 453 26 q 443 33 446 31 q 438 38 440 36 q 404 75 415 49 q 398 92 401 83 q 392 110 394 101 q 388 116 390 113 q 383 126 386 119 q 395 50 375 79 q 453 26 415 21 m 49 729 q 59 752 56 742 q 69 769 63 763 q 85 785 76 778 q 103 799 93 792 q 64 793 83 810 q 49 729 36 771 m 403 839 q 412 864 408 853 q 422 885 415 875 q 438 901 429 894 q 457 917 447 908 q 415 907 435 928 q 403 839 392 879 z "},"I":{"ha":421,"x_min":-3,"x_max":382,"o":"m 103 115 q 90 195 92 156 q 89 274 89 235 q 92 444 88 360 q 103 615 96 529 q 109 701 106 658 q 115 788 113 743 l 115 828 q 97 823 104 825 q 81 821 89 821 q 59 821 69 821 q 38 824 49 821 q 10 867 10 832 q 38 911 10 899 q 81 929 57 922 q 164 948 122 940 q 249 951 206 956 q 301 942 279 949 q 335 915 325 935 q 338 872 344 896 q 315 839 333 851 q 275 829 297 826 q 261 830 268 829 q 246 832 254 831 q 245 819 246 825 q 244 807 244 813 q 253 699 249 753 q 263 593 258 646 q 266 531 265 561 q 268 469 267 501 q 272 340 271 404 q 275 211 274 276 q 275 168 276 190 q 272 122 274 146 q 283 119 278 121 q 296 115 289 118 q 322 108 308 111 q 347 99 335 106 q 374 70 367 89 q 376 31 382 51 q 357 -3 372 10 q 318 -15 342 -15 q 288 -14 303 -15 q 258 -10 274 -12 q 129 -3 190 1 q 108 -5 118 -4 q 88 -8 99 -6 q 73 -10 81 -10 q 58 -11 65 -11 q 22 -1 38 -12 q 1 31 6 11 q 6 65 -3 47 q 32 92 14 82 q 53 99 43 96 q 74 106 63 103 q 103 115 88 110 m 353 67 q 342 47 347 57 q 331 29 338 36 q 312 17 322 22 q 289 4 301 11 q 324 3 311 -3 q 349 22 338 8 q 353 67 367 46 m 264 850 q 317 863 297 838 q 317 903 332 885 q 309 888 313 893 q 301 877 306 882 q 288 866 296 872 q 264 850 279 860 m 56 906 q 34 886 40 899 q 33 858 28 874 q 74 842 43 832 q 49 869 50 853 q 56 906 49 886 m 31 64 q 32 18 13 42 q 74 11 47 -1 q 44 31 56 19 q 31 64 32 43 z "},"J":{"ha":493,"x_min":-1,"x_max":458,"o":"m 244 847 q 199 849 219 851 q 157 843 178 846 q 108 835 132 839 q 60 826 83 831 q 6 853 21 822 q 1 884 -1 868 q 19 911 4 900 q 41 926 29 919 q 64 940 53 933 q 169 974 115 964 q 279 990 224 983 q 393 978 338 999 q 417 967 406 974 q 436 950 428 961 q 446 886 458 921 q 392 844 432 851 q 379 844 385 844 q 367 843 374 844 q 368 831 368 836 q 369 821 368 826 q 383 724 376 772 q 393 628 389 676 q 396 548 396 588 q 392 468 396 508 q 381 374 388 421 q 360 283 375 328 q 285 123 332 196 q 168 -8 239 50 q 133 -32 153 -22 q 94 -51 114 -42 q 57 -53 75 -60 q 31 -29 39 -46 q 25 6 21 -12 q 46 36 29 25 q 80 67 67 49 q 106 104 93 85 q 167 236 146 167 q 200 379 189 306 q 217 508 211 444 q 229 639 224 572 q 237 724 232 682 q 244 810 242 767 q 245 828 246 819 q 244 847 244 838 m 53 18 q 60 -32 33 -17 q 93 -36 75 -42 q 122 -14 111 -31 q 76 -19 94 -21 q 53 18 58 -17 m 83 851 q 65 858 75 856 q 49 868 56 861 q 38 883 42 874 q 31 899 35 892 q 31 858 14 875 q 83 851 53 833 m 369 864 q 401 871 389 864 q 422 890 414 878 q 432 910 429 900 q 428 931 435 919 q 417 910 421 919 q 406 894 413 901 q 390 880 399 886 q 369 864 381 874 z "},"K":{"ha":675,"x_min":-3,"x_max":638,"o":"m 163 310 q 157 279 160 294 q 152 239 154 260 q 147 199 150 218 q 101 151 140 156 q 65 157 82 149 q 42 185 49 165 q 32 217 35 200 q 26 250 29 233 q 23 310 24 281 q 21 371 22 340 q 19 406 21 389 q 8 440 17 424 q 1 473 0 456 q 10 507 3 490 q 15 521 13 514 q 18 535 18 528 l 31 810 q 33 841 32 825 q 36 872 33 857 q 52 903 39 892 q 85 915 65 915 q 117 902 104 915 q 132 868 131 889 q 138 765 135 815 q 144 661 142 714 q 149 625 147 644 q 163 634 157 631 q 174 642 168 638 q 235 696 204 669 q 296 750 265 722 q 399 845 349 797 q 503 942 450 893 q 538 964 522 958 q 594 957 569 976 q 614 904 618 938 q 583 840 607 867 q 544 792 564 817 q 501 744 524 768 q 390 634 446 689 q 279 525 335 579 q 254 503 268 514 q 225 479 240 493 q 235 474 231 476 q 243 468 240 471 q 260 455 253 461 q 278 443 268 449 q 396 345 342 399 q 501 233 450 292 q 557 169 529 201 q 608 101 585 138 q 619 85 614 93 q 626 69 624 78 q 630 15 638 42 q 600 -29 622 -11 q 551 -47 581 -46 q 499 -32 522 -47 q 481 -17 489 -25 q 465 0 472 -8 q 350 125 407 63 q 235 250 293 188 q 206 276 221 264 q 178 300 192 288 q 172 305 175 303 q 163 310 168 307 m 442 93 q 438 90 439 92 q 435 88 438 89 q 478 26 454 54 q 543 -12 503 -1 q 559 -14 550 -15 q 575 -11 568 -12 q 587 -3 582 -8 q 593 13 592 1 q 546 8 567 0 q 506 32 525 17 q 483 53 494 42 q 460 75 471 64 l 442 93 m 53 281 q 49 222 39 253 q 81 181 60 190 q 94 177 88 178 q 108 185 100 176 q 70 225 79 199 q 53 281 61 251 m 576 940 q 560 947 569 947 q 544 943 551 946 q 506 917 522 932 q 478 882 490 901 q 477 876 476 879 q 478 867 478 874 q 503 890 492 879 q 525 908 514 900 q 549 924 536 917 q 576 940 563 932 m 104 892 q 57 881 74 908 q 47 849 47 865 q 51 817 47 833 q 60 838 57 828 q 67 858 64 847 q 79 879 69 872 q 104 892 89 886 m 33 442 q 35 476 35 461 q 38 508 36 492 q 33 442 -3 482 z "},"L":{"ha":629,"x_min":-1,"x_max":590,"o":"m 231 149 q 243 146 242 146 q 351 146 297 150 q 460 136 406 142 l 499 136 q 551 117 528 133 q 582 72 574 100 q 583 19 590 46 q 553 -25 575 -7 q 518 -44 538 -39 q 479 -46 499 -49 q 424 -37 451 -43 q 369 -29 397 -32 q 243 -20 306 -19 q 117 -32 181 -21 q 46 -31 79 -39 q 1 19 8 -21 q 3 56 -1 39 q 25 83 7 72 q 48 105 42 93 q 54 136 54 117 q 54 249 53 193 q 56 363 56 306 q 57 522 57 442 q 58 681 57 601 q 60 789 60 735 q 64 897 61 843 q 71 936 64 915 q 117 968 81 965 q 164 940 151 971 q 179 894 175 918 q 190 807 185 850 q 199 721 194 764 q 206 622 203 672 q 213 524 210 572 q 215 469 214 496 q 218 415 217 443 q 223 292 221 353 q 228 169 225 232 q 229 160 229 164 q 231 149 229 156 m 479 -22 q 546 0 517 -36 q 554 64 572 35 q 527 11 547 31 q 479 -22 507 -8 m 93 846 q 95 863 94 854 q 99 879 96 871 q 106 915 101 897 q 126 944 110 932 l 126 950 q 110 949 117 953 q 99 940 104 946 q 87 922 92 933 q 81 896 82 910 q 83 869 81 882 q 93 846 86 856 m 29 58 q 44 -7 11 19 q 73 -19 57 -18 q 100 -14 89 -21 q 76 -3 89 -7 q 56 10 64 1 q 41 32 46 19 q 29 58 36 44 z "},"M":{"ha":975,"x_min":0,"x_max":936,"o":"m 249 489 q 244 476 246 482 q 239 463 242 469 q 185 317 211 389 q 132 171 160 244 q 124 151 129 160 q 114 133 119 142 q 47 103 88 92 q 3 158 10 111 q 3 201 0 181 q 8 244 6 222 q 53 444 28 344 q 113 640 78 543 q 140 711 125 676 q 175 779 156 746 q 205 814 188 800 q 249 832 222 828 q 338 792 307 839 q 360 749 351 772 q 415 542 396 649 q 428 461 422 501 q 442 381 435 421 q 444 370 443 375 q 450 360 446 365 q 460 382 456 368 q 523 565 492 474 q 586 750 554 657 q 618 824 600 789 q 663 892 636 860 q 715 928 686 919 q 797 907 764 940 q 822 874 813 892 q 839 836 832 856 q 858 763 851 800 q 871 689 865 726 q 887 577 878 632 q 903 465 896 522 q 915 325 910 394 q 928 185 921 256 l 932 143 q 924 83 936 113 q 892 39 913 56 q 840 19 871 22 q 788 31 811 17 q 750 69 765 44 q 733 121 738 92 q 720 244 726 183 q 708 368 714 306 q 701 477 704 422 q 696 588 699 532 q 695 599 696 593 q 693 611 694 604 q 684 600 686 606 q 681 589 682 594 l 593 310 q 563 210 578 260 q 532 111 547 161 q 500 35 519 71 q 459 -3 485 7 q 406 -7 433 -14 q 378 7 390 -3 q 357 31 367 17 q 336 75 343 51 q 324 122 329 99 q 308 206 315 164 q 293 292 301 249 q 277 380 286 336 q 260 468 268 424 q 257 478 258 474 q 254 489 256 483 l 249 489 m 285 799 q 274 810 279 808 q 261 810 268 811 q 233 801 246 807 q 185 754 203 782 q 160 693 168 726 q 164 682 160 692 q 176 703 171 693 q 189 722 182 713 q 227 772 207 750 q 285 799 247 794 m 764 178 q 760 176 761 176 l 758 176 q 756 169 756 171 q 789 65 749 108 q 804 54 796 58 q 821 46 813 50 q 833 44 826 43 q 847 53 840 44 q 788 105 806 72 q 764 178 771 138 m 628 772 q 633 769 633 769 q 638 776 636 774 q 643 783 640 779 q 656 806 650 794 q 668 828 661 817 q 697 868 681 850 q 736 897 713 886 q 738 899 738 897 q 740 903 739 901 q 726 908 729 907 q 715 904 722 908 q 697 891 706 897 q 681 878 688 885 q 650 835 661 858 q 629 786 639 811 q 628 779 628 783 q 628 772 629 775 m 363 147 q 372 89 365 117 q 399 38 379 61 q 419 23 407 26 q 443 18 431 19 q 449 19 446 17 q 461 24 453 21 q 424 47 438 32 q 399 78 410 61 q 381 113 389 94 q 363 147 372 131 m 38 246 q 25 219 29 233 q 22 189 21 204 q 28 160 24 174 q 43 138 33 146 q 56 127 50 131 q 69 126 61 124 q 55 155 63 142 q 43 183 47 168 q 39 215 39 199 q 38 246 39 231 z "},"N":{"ha":654,"x_min":0,"x_max":615,"o":"m 132 476 q 129 455 131 465 q 128 433 128 444 q 126 385 126 410 q 125 338 125 361 l 117 121 q 107 81 117 103 q 91 58 101 67 q 68 49 81 50 q 43 52 56 47 q 21 69 31 57 q 1 121 1 92 q 1 175 0 149 q 1 229 1 201 q 4 275 3 253 q 6 321 6 297 q 7 444 7 383 q 8 567 7 504 q 21 729 13 647 q 29 759 24 744 q 42 786 35 774 q 108 830 67 828 q 179 796 149 832 q 215 743 200 771 q 242 686 229 715 q 288 576 265 632 q 335 465 311 521 q 381 355 358 410 q 428 243 404 300 q 433 232 431 238 q 440 219 436 226 q 449 246 447 233 q 450 271 450 258 q 454 474 453 372 q 458 676 456 575 q 463 785 460 731 q 469 893 467 839 q 475 919 471 907 q 483 946 479 932 q 533 986 493 982 q 568 978 554 988 q 592 951 582 968 q 603 914 601 933 q 608 875 606 894 q 610 668 615 771 q 597 463 606 565 q 581 258 589 361 q 574 53 574 156 q 565 10 571 31 q 543 -26 558 -10 q 485 -60 517 -54 q 419 -60 454 -67 q 369 -36 390 -53 q 329 3 347 -19 q 278 78 299 39 q 243 163 258 118 q 192 314 217 238 q 140 465 167 390 q 138 478 140 469 q 132 476 135 476 m 492 -24 q 474 -15 482 -19 q 456 -8 465 -11 q 383 40 414 6 q 363 68 372 54 q 342 96 353 82 q 333 105 338 100 q 325 115 329 110 q 321 113 322 113 q 324 101 321 104 q 341 66 332 83 q 361 33 350 49 q 397 -5 376 11 q 443 -28 417 -21 q 467 -31 454 -31 q 492 -24 479 -32 m 119 799 q 68 783 92 811 q 45 735 50 763 q 51 689 40 708 q 56 706 54 699 q 61 721 58 714 q 79 764 68 744 q 115 793 90 783 q 119 799 118 796 m 489 853 q 493 851 492 851 q 497 850 494 851 q 503 880 500 865 q 513 908 506 894 q 529 935 519 922 q 549 961 539 947 q 526 960 535 967 q 511 944 518 953 q 488 901 493 925 q 489 853 483 878 m 32 169 q 35 97 15 132 q 49 83 40 89 q 67 71 58 78 q 73 71 69 69 q 81 72 76 72 q 83 78 81 75 q 47 117 56 93 q 32 169 38 142 z "},"O":{"ha":721,"x_min":-3,"x_max":681,"o":"m 1 349 q 29 524 3 440 q 118 678 56 607 q 233 765 168 735 q 372 775 300 799 q 415 724 414 761 q 372 671 415 685 q 349 664 360 665 q 282 615 307 649 q 235 538 254 578 q 208 451 215 497 q 204 379 204 415 q 217 307 204 343 q 365 186 253 197 q 412 192 389 183 q 454 218 435 201 q 504 289 488 247 q 528 367 521 328 q 540 447 536 407 q 510 689 554 569 q 469 757 494 729 q 404 800 444 785 q 300 814 351 819 q 199 782 249 808 q 183 773 190 778 q 167 764 175 768 q 131 759 149 754 q 101 779 113 764 q 93 813 90 794 q 111 846 96 832 q 173 906 133 883 q 260 938 213 929 q 360 939 308 946 q 460 910 413 932 q 548 851 508 888 q 610 763 588 814 q 656 638 638 700 q 678 508 675 576 q 672 358 681 432 q 632 213 663 283 q 558 100 604 147 q 449 21 511 53 q 385 -1 418 4 q 319 -1 353 -6 q 219 21 267 6 q 128 69 171 36 q 1 349 -3 178 m 531 285 q 536 282 533 282 q 542 292 539 288 q 549 303 546 297 q 585 453 578 378 q 572 606 592 528 q 568 617 571 613 q 563 629 565 622 q 556 628 561 628 q 564 454 574 540 q 549 369 558 411 q 531 285 539 328 m 97 160 q 94 158 94 158 q 90 156 93 157 q 98 142 94 149 q 107 131 101 136 q 150 88 126 106 q 200 56 174 71 q 290 22 244 31 q 305 20 297 21 q 324 26 313 19 q 200 79 258 51 q 97 160 142 107 m 90 564 q 103 588 97 578 q 115 608 110 599 q 128 629 122 619 q 142 650 135 639 q 157 668 149 660 q 174 685 165 676 q 191 700 181 694 q 207 719 201 706 q 164 699 186 715 q 124 659 142 682 q 97 610 107 636 q 90 564 88 585 m 121 828 q 117 799 114 808 q 132 783 121 790 q 183 797 161 768 q 147 799 164 796 q 121 828 131 803 m 338 676 q 379 690 364 676 q 392 725 394 704 q 365 702 378 714 q 338 676 353 690 z "},"P":{"ha":764,"x_min":0,"x_max":729,"o":"m 192 132 q 190 113 190 121 q 189 97 190 106 q 189 67 189 82 q 188 36 189 51 q 174 -6 185 13 q 149 -40 164 -25 q 88 -63 124 -67 q 31 -29 51 -60 q 1 60 0 13 q 6 186 4 124 q 10 311 7 249 q 10 371 11 342 q 13 431 10 400 q 29 651 18 540 q 37 703 32 678 q 47 756 42 729 q 82 804 54 788 q 134 811 108 819 q 171 775 160 803 q 178 749 176 763 q 182 722 181 736 q 192 514 189 618 q 194 306 196 410 q 195 292 194 299 q 196 276 196 285 q 225 278 211 278 q 253 281 239 278 q 334 301 296 288 q 408 339 372 315 q 482 410 453 369 q 528 501 511 451 q 538 553 536 526 q 536 606 539 579 q 535 634 536 621 q 532 663 533 647 q 519 720 529 693 q 492 772 508 747 q 356 846 442 843 q 270 845 313 847 q 186 840 228 843 q 158 837 171 839 q 129 832 144 835 q 100 832 114 829 q 60 867 71 836 q 74 915 50 896 q 107 935 89 929 q 238 972 172 958 q 372 985 303 986 q 669 814 567 983 q 699 744 689 781 q 715 669 710 707 q 713 490 729 582 q 676 385 701 433 q 613 292 650 336 q 293 136 486 149 q 259 135 276 135 q 225 133 242 135 q 210 133 218 133 q 192 132 203 132 m 543 756 q 551 731 547 743 q 557 708 554 719 q 567 615 568 661 q 560 519 567 568 q 557 508 558 514 q 561 497 556 503 q 583 558 576 519 q 586 635 589 596 q 572 708 583 674 q 543 756 561 742 m 28 94 q 25 65 24 81 q 31 33 26 49 q 42 6 35 18 q 60 -15 50 -7 q 101 -32 81 -32 q 117 -31 110 -32 q 131 -24 125 -31 q 129 -21 129 -22 l 128 -19 q 114 -17 122 -19 q 50 31 69 -12 q 42 51 46 42 q 36 72 39 61 q 32 83 33 78 q 28 94 31 88 m 50 651 l 56 651 q 61 675 58 663 q 67 700 64 688 q 74 726 69 713 q 85 751 78 739 q 98 772 90 763 q 114 794 106 782 q 83 777 97 790 q 61 744 69 764 q 49 700 53 724 q 50 651 46 676 m 89 910 q 96 854 64 874 q 126 844 111 843 q 151 860 142 846 q 109 867 128 860 q 89 910 90 875 z "},"Q":{"ha":765,"x_min":-6,"x_max":724,"o":"m 303 274 q 301 289 301 281 q 299 304 301 297 q 284 434 285 369 q 293 564 283 499 q 307 622 297 594 q 332 678 317 650 q 525 785 393 792 q 620 755 581 782 q 685 679 660 728 q 724 522 724 604 q 707 371 724 446 q 681 297 700 331 q 640 229 663 263 q 622 201 632 215 q 601 175 613 188 q 573 144 588 160 q 543 113 558 129 q 603 68 564 86 q 635 36 626 58 q 632 -7 643 14 q 576 -35 611 -43 q 537 -26 557 -31 q 499 -11 517 -21 q 417 54 450 13 q 379 72 404 72 q 323 75 351 75 q 267 82 294 75 q 116 165 175 106 q 26 313 57 224 q 3 503 -6 408 q 51 689 11 597 q 108 795 75 746 q 190 885 142 844 q 342 956 254 940 q 454 938 399 965 q 485 897 478 925 q 475 858 488 875 q 442 839 463 842 l 429 839 q 358 829 389 844 q 304 785 328 814 q 269 743 286 764 q 239 699 251 722 q 197 588 207 646 q 194 468 188 529 q 201 425 197 446 q 210 383 204 404 q 238 323 218 349 q 286 278 258 297 q 296 274 292 275 q 303 274 296 274 m 457 254 q 469 262 464 258 q 479 269 475 265 q 553 363 524 313 q 596 474 583 413 q 603 544 604 510 q 586 614 601 579 q 558 656 575 639 q 511 678 540 674 q 483 676 493 681 q 465 656 474 671 q 450 624 457 640 q 438 592 443 608 q 415 472 418 532 q 425 351 413 413 q 437 303 431 328 q 457 254 443 279 m 81 290 q 78 271 75 278 q 86 257 82 264 q 142 179 108 213 q 218 122 175 146 q 239 114 228 115 q 245 113 242 113 q 256 114 249 114 q 206 153 231 135 q 158 193 181 172 q 115 238 135 214 q 81 290 94 261 m 621 600 q 622 590 622 593 q 624 585 622 588 q 626 519 629 551 q 615 456 624 488 q 607 431 611 443 q 600 406 603 418 q 599 392 599 401 q 628 435 617 406 q 643 496 639 464 q 642 557 647 528 q 621 600 636 586 m 431 744 q 387 721 410 743 q 347 669 364 699 q 321 609 329 640 q 319 557 313 578 q 340 608 331 583 q 361 657 350 632 q 392 702 372 682 q 431 744 411 722 m 269 908 q 226 890 250 906 q 179 851 201 874 q 141 805 157 829 q 125 763 125 781 q 192 842 158 804 q 269 908 226 881 m 451 71 l 447 67 q 451 62 450 64 q 454 57 451 60 q 483 31 469 44 q 514 7 497 18 q 542 -6 528 -1 q 572 -15 557 -11 q 607 -3 594 -22 q 562 4 582 -3 q 523 22 542 11 q 487 47 504 33 q 451 71 469 60 m 471 889 q 444 873 457 881 q 418 857 432 865 q 440 851 429 849 q 460 860 450 853 q 472 872 467 865 q 471 889 476 879 z "},"R":{"ha":775,"x_min":-1,"x_max":736,"o":"m 211 496 q 227 499 221 499 q 239 503 233 500 q 342 546 293 521 q 433 607 390 571 q 492 681 472 639 q 506 760 511 722 q 450 835 501 799 q 392 865 422 854 q 328 882 361 875 q 229 889 278 892 q 132 875 181 886 q 119 873 125 874 q 106 874 113 872 q 57 917 67 878 q 82 979 47 956 q 115 994 100 989 q 293 1030 204 1024 q 474 1008 382 1036 q 559 970 519 994 q 631 907 599 946 q 692 773 682 843 q 674 626 701 703 q 630 546 657 582 q 569 478 603 510 q 460 394 519 428 q 331 342 400 361 q 319 338 322 339 q 314 331 318 338 q 324 324 319 328 q 335 315 329 319 q 437 249 386 282 q 538 179 488 215 q 604 127 572 154 q 669 72 636 100 q 684 59 676 65 q 700 47 692 53 q 729 8 722 32 q 728 -37 736 -15 q 697 -74 719 -61 q 647 -83 674 -87 q 620 -78 633 -81 q 594 -68 607 -75 q 547 -41 571 -54 q 500 -11 522 -28 q 374 87 436 38 q 247 186 311 136 q 235 194 242 190 q 221 204 229 197 q 220 188 221 194 q 219 174 219 181 q 203 113 219 139 q 172 83 190 93 q 133 72 153 72 q 95 80 114 71 q 63 108 76 89 q 42 171 42 135 q 43 235 43 203 q 44 299 43 267 q 26 343 46 325 q 0 403 -1 368 q 31 463 1 439 q 48 485 44 474 q 53 513 51 497 q 61 685 56 600 q 63 731 63 708 q 67 778 64 754 q 71 797 68 788 q 76 815 74 807 q 126 850 92 850 q 159 842 146 850 q 178 815 172 833 q 188 778 185 797 q 192 740 190 760 q 201 650 197 696 q 207 558 204 604 q 209 528 208 543 q 211 496 210 514 m 513 667 q 515 665 514 665 q 517 664 515 665 q 528 674 525 669 q 554 740 550 706 q 542 811 558 775 q 503 850 531 836 q 495 852 500 853 q 482 853 490 851 q 517 814 506 833 q 532 769 529 794 q 521 690 536 728 q 517 678 518 683 q 513 667 515 674 m 550 -3 q 547 -7 547 -6 q 551 -13 550 -10 q 556 -19 553 -17 q 602 -48 578 -37 q 654 -61 626 -58 q 688 -54 669 -61 q 703 -25 703 -47 q 666 -41 685 -40 q 628 -37 647 -42 q 588 -23 607 -32 q 550 -3 568 -14 m 75 224 q 67 214 67 213 q 90 121 58 160 q 108 108 97 113 q 129 97 118 103 q 141 95 135 94 q 154 106 147 96 q 120 120 136 113 q 94 146 104 128 q 75 224 76 179 m 57 354 q 48 383 53 369 q 43 408 43 396 q 48 431 43 419 q 56 457 53 443 q 32 436 38 450 q 26 407 26 422 q 57 354 24 372 m 90 965 q 74 939 75 954 q 83 908 72 924 q 133 896 106 879 q 95 920 110 906 q 90 965 81 935 m 86 765 q 90 765 89 765 q 92 764 90 764 q 99 783 96 774 q 107 800 101 792 q 121 817 113 810 q 136 831 129 824 q 115 832 122 833 q 100 819 107 831 q 86 765 79 797 z "},"S":{"ha":763,"x_min":-19,"x_max":721,"o":"m 721 793 q 714 781 715 785 q 672 754 699 754 q 628 779 642 754 q 624 785 625 782 q 621 792 624 789 q 543 838 600 844 q 473 817 506 832 q 408 783 440 803 q 333 728 368 758 q 268 658 297 697 q 235 610 251 638 q 226 572 226 593 q 268 507 225 522 q 342 481 304 493 q 415 456 379 468 q 498 424 457 440 q 578 385 539 408 q 628 348 606 368 q 669 300 651 328 q 696 178 706 242 q 633 72 686 115 q 396 -15 529 -15 q 246 21 318 -15 q 188 87 200 43 q 204 175 176 131 q 282 263 236 228 q 295 272 289 267 q 311 285 301 278 q 294 290 300 288 q 281 294 288 292 q 224 312 253 304 q 165 331 194 319 q 97 363 129 344 q 40 414 64 382 q 10 586 -19 492 q 49 668 25 631 q 101 740 72 706 q 220 849 156 803 q 361 926 285 896 q 462 956 411 946 q 567 958 513 967 q 631 944 599 953 q 686 907 663 935 q 704 883 696 896 q 715 854 713 869 q 717 850 715 851 q 721 847 719 849 l 721 793 m 292 129 q 297 124 296 124 q 301 121 300 121 q 421 123 365 106 q 526 179 476 140 q 524 210 546 194 q 495 228 510 221 q 465 246 481 236 q 433 243 449 254 q 383 212 408 228 q 335 179 358 196 q 292 129 306 158 m 140 388 q 143 394 140 392 q 127 409 135 401 q 111 424 119 417 q 58 518 67 461 q 56 545 56 532 q 56 572 57 558 q 53 585 56 576 q 41 517 38 550 q 60 453 44 485 q 115 396 76 418 q 127 392 121 393 q 140 388 133 390 m 261 44 q 235 88 243 74 q 226 113 226 101 q 228 139 225 125 q 236 181 232 153 q 210 145 217 169 q 213 93 204 121 q 261 44 226 44 m 624 844 q 617 839 618 842 q 625 819 621 829 q 636 799 629 808 q 646 788 640 792 q 658 779 651 783 q 699 793 681 769 q 673 794 685 792 q 653 807 661 796 q 638 825 646 815 q 624 844 631 835 m 546 164 q 572 217 583 185 q 535 242 564 243 q 548 221 543 229 q 553 206 553 213 q 552 190 554 199 q 546 164 550 181 z "},"T":{"ha":725,"x_min":0,"x_max":685,"o":"m 0 803 q 8 808 7 807 q 38 842 19 831 q 79 861 57 853 q 174 890 125 881 q 272 911 224 900 q 310 918 292 914 q 347 925 328 922 q 524 938 433 933 q 567 938 546 939 q 610 936 588 938 q 672 897 650 933 q 683 856 685 878 q 665 815 681 833 q 599 785 639 788 q 535 783 567 783 q 472 782 504 783 q 431 781 451 782 q 389 779 410 781 q 375 776 386 779 l 383 706 q 395 563 392 635 q 401 421 399 492 q 401 280 404 350 q 396 139 399 210 q 385 89 394 113 q 363 43 376 65 q 288 6 338 1 q 225 54 243 10 q 206 108 214 81 q 200 164 199 135 q 207 318 204 242 q 213 474 210 394 q 217 595 215 535 q 222 717 219 656 q 223 740 224 728 q 222 764 222 751 q 171 762 196 767 q 121 753 146 757 q 101 748 110 750 q 81 743 92 746 q 40 743 58 738 q 11 771 22 749 q 6 775 8 774 q 0 779 3 776 l 0 803 m 322 39 q 314 47 317 43 q 308 53 311 50 q 258 119 269 72 l 246 157 q 238 172 244 160 q 235 137 233 156 q 242 101 238 118 q 255 71 247 85 q 271 51 263 57 q 293 40 282 44 q 322 39 304 35 m 564 811 q 608 810 588 803 q 644 839 629 818 q 649 881 664 865 q 633 858 640 869 q 617 840 626 847 q 592 825 606 831 q 564 811 579 819 m 119 774 q 101 775 110 775 q 82 776 92 775 q 47 808 51 781 q 42 822 47 811 q 43 772 18 794 q 81 758 58 758 q 119 774 103 758 z "},"U":{"ha":836,"x_min":-6,"x_max":794,"o":"m 597 478 q 592 463 594 471 q 586 449 589 456 q 542 336 564 392 q 497 225 521 281 q 466 163 482 193 q 431 103 450 132 q 326 19 388 40 q 193 10 265 -3 q 102 51 140 19 q 39 132 64 83 q 16 197 24 164 q 6 263 8 229 q 11 542 -6 406 q 26 644 18 593 q 43 746 33 694 q 94 790 51 788 q 149 747 138 793 q 167 648 160 697 q 178 547 175 599 q 185 422 181 485 q 200 297 189 360 q 210 256 204 276 q 222 217 215 236 q 236 188 226 199 q 275 158 256 163 q 318 179 294 153 q 371 247 349 211 q 411 322 393 282 q 481 498 451 410 q 539 678 511 586 q 569 769 553 724 q 603 861 586 815 q 615 887 607 875 q 631 910 622 899 q 659 935 643 926 q 693 943 675 943 q 728 935 711 943 q 757 910 744 926 q 782 844 781 878 q 790 775 786 810 q 794 704 794 740 q 790 590 793 646 q 785 476 788 535 q 780 381 782 428 q 775 286 778 335 q 771 190 772 238 q 758 93 769 142 q 751 69 756 81 q 743 46 747 57 q 699 1 728 10 q 638 15 669 -7 q 604 58 613 29 q 597 83 600 71 q 593 107 594 94 q 588 240 586 174 q 596 372 589 306 q 599 419 599 396 q 603 465 600 442 q 602 471 603 468 q 601 476 601 474 q 599 477 600 476 q 597 478 599 478 m 50 265 l 43 265 q 42 252 43 258 q 43 239 42 246 q 131 75 58 138 q 189 44 154 53 q 203 42 196 43 q 218 47 211 40 q 177 73 197 61 q 138 100 157 85 q 83 178 100 131 q 66 222 74 200 q 50 265 58 243 m 624 160 q 619 159 621 160 q 615 158 618 158 q 621 99 617 128 q 647 46 625 69 q 663 34 654 39 q 679 25 671 29 q 697 29 682 24 q 689 36 692 33 q 683 42 686 39 q 642 97 653 58 q 636 116 639 107 q 631 136 633 125 q 628 147 629 142 q 624 160 626 153 m 710 913 q 685 918 694 921 q 669 908 676 915 q 617 821 626 875 q 617 815 615 818 q 618 808 618 811 q 620 808 619 808 q 622 807 621 807 q 658 864 640 835 q 710 913 675 893 m 58 690 q 65 689 61 689 q 72 708 68 699 q 79 726 75 718 q 92 745 85 736 q 107 765 99 754 q 81 758 90 765 q 67 742 72 751 q 56 717 60 729 q 58 690 51 704 z "},"V":{"ha":700,"x_min":0,"x_max":658,"o":"m 307 203 q 313 215 310 210 q 318 226 315 219 q 353 332 336 279 q 386 438 371 385 q 447 632 417 535 q 507 826 476 729 q 532 893 517 860 q 581 931 547 925 q 634 917 613 935 q 657 869 656 900 q 647 808 658 840 q 589 623 618 715 q 529 439 560 531 q 477 284 504 360 q 418 133 450 208 q 399 97 410 114 q 378 63 389 79 q 257 17 338 -1 q 181 53 213 26 q 131 119 150 79 q 97 212 110 164 q 72 308 83 260 q 51 424 58 367 q 38 542 44 482 q 24 631 31 586 q 11 722 18 676 q 6 771 8 746 q 1 819 4 796 q 1 836 0 828 q 3 851 1 844 q 49 901 8 890 q 110 879 88 910 q 127 852 119 867 q 139 822 135 838 q 179 681 160 751 q 217 538 199 610 q 258 377 238 457 q 297 217 278 297 q 303 204 297 213 q 305 203 304 204 q 307 203 306 203 m 308 50 q 296 56 304 53 q 224 91 253 65 q 176 154 196 117 q 162 184 169 169 q 147 214 154 199 q 135 229 146 218 q 134 219 135 222 q 135 214 133 217 q 150 169 143 192 q 168 125 157 146 q 205 75 182 96 q 260 44 228 54 q 285 40 272 40 q 308 50 297 39 m 617 903 q 564 901 590 921 q 543 844 529 876 q 557 864 550 854 q 572 881 564 874 q 594 892 582 888 q 617 903 606 896 m 28 790 q 35 789 31 789 q 40 812 38 800 q 46 835 42 824 q 56 857 50 846 q 67 879 61 868 q 44 873 51 878 q 31 853 36 868 q 22 822 24 838 q 28 790 19 806 z "},"W":{"ha":1017,"x_min":-7,"x_max":976,"o":"m 418 214 q 406 201 411 207 q 394 189 401 194 q 363 158 379 174 q 329 132 347 143 q 256 103 294 110 q 182 106 218 97 q 113 135 146 114 q 58 192 81 157 q 19 273 32 231 q 3 361 7 315 q 19 569 -7 469 q 96 765 46 669 q 106 782 101 774 q 118 797 111 790 q 138 813 128 806 q 158 825 147 821 q 213 819 189 836 q 239 771 238 803 q 236 721 239 746 q 229 671 233 696 q 215 568 221 619 q 213 465 210 517 q 243 321 215 388 l 247 313 q 260 297 254 299 q 278 303 267 296 q 294 316 286 310 q 307 329 301 322 q 356 414 335 369 q 393 504 376 458 q 399 535 399 519 q 403 567 400 551 q 409 599 406 583 q 419 631 413 615 q 476 675 432 671 q 539 639 518 676 q 547 622 543 631 q 553 603 550 613 q 582 485 572 544 q 603 367 592 426 q 616 305 608 335 q 632 244 624 275 q 651 206 639 222 q 689 203 669 182 q 735 261 714 229 q 786 369 768 313 q 815 486 804 426 q 831 599 826 543 q 836 713 835 654 q 831 787 838 750 q 814 860 825 824 q 810 889 810 875 q 822 917 811 903 q 858 937 835 933 q 896 925 881 940 q 913 908 906 918 q 925 889 919 899 q 943 849 935 869 q 960 807 951 828 q 972 760 969 783 q 974 713 974 736 q 975 575 974 643 q 967 439 976 507 q 929 272 956 351 q 849 121 903 192 q 786 56 819 83 q 684 8 738 14 q 572 28 631 1 q 436 169 475 69 q 418 214 429 186 m 868 556 q 864 554 864 556 q 818 392 847 471 q 757 233 789 313 q 758 229 756 232 q 798 286 776 243 q 836 381 819 329 q 863 481 853 432 q 868 556 872 529 m 164 147 l 144 167 q 110 202 125 183 q 86 243 96 221 q 65 294 75 268 q 43 344 54 319 q 40 351 42 347 q 38 357 39 354 l 33 357 q 33 347 33 351 q 33 338 32 342 q 50 275 40 306 q 76 217 60 244 q 131 156 96 178 q 144 147 138 151 q 164 147 151 143 m 649 38 q 649 41 649 40 q 650 43 650 42 q 640 49 644 46 q 631 54 636 51 q 573 85 600 68 q 525 129 546 103 q 508 149 517 139 q 492 168 500 158 q 485 173 489 171 q 476 178 482 175 q 478 165 476 167 q 538 85 501 118 q 624 38 574 53 q 636 37 631 36 q 649 38 642 38 m 313 292 q 342 313 326 296 q 371 351 358 329 q 390 395 383 374 q 393 429 397 417 q 354 362 374 396 q 313 292 335 328 m 118 742 q 140 761 131 753 q 160 776 149 769 q 182 788 171 783 q 206 799 193 792 q 176 806 189 810 q 151 794 163 801 q 128 775 138 786 q 118 742 118 764 m 444 564 q 453 588 450 576 q 464 610 457 599 q 476 630 469 621 q 490 650 483 639 q 467 642 478 650 q 449 622 456 635 q 440 593 442 608 q 444 564 439 578 m 853 908 q 833 856 828 892 q 836 842 835 849 q 849 835 838 836 q 851 872 850 854 q 853 908 851 889 z "},"X":{"ha":758,"x_min":-3,"x_max":719,"o":"m 50 -71 q 44 -68 47 -69 q 39 -65 42 -67 q 1 4 -3 -42 q 18 92 8 49 q 44 176 28 135 q 110 327 75 253 q 188 472 144 401 q 195 485 192 479 q 201 499 199 492 q 172 552 186 526 q 144 606 158 578 q 99 697 121 651 q 56 789 78 743 q 40 822 47 806 q 25 854 32 838 q 19 874 21 864 q 14 894 17 883 q 42 950 10 933 q 104 946 76 967 q 153 900 133 924 q 210 828 183 865 q 260 753 236 792 q 283 717 271 733 q 307 683 294 700 q 312 676 310 679 q 317 665 314 672 q 344 700 332 685 q 368 731 356 715 q 438 810 403 771 q 510 888 474 849 q 549 926 529 907 q 588 963 568 944 q 612 983 599 974 q 639 1004 625 993 q 669 1015 653 1015 q 699 1004 686 1014 q 715 978 711 993 q 711 949 719 964 q 694 916 703 932 q 674 885 685 900 q 583 766 629 825 q 493 647 538 707 q 457 599 474 624 q 421 550 440 574 q 421 515 408 532 l 567 299 q 613 230 590 264 q 657 161 635 196 q 667 121 668 142 q 653 85 667 100 q 620 65 640 69 q 579 69 600 60 q 524 98 550 81 q 475 135 499 115 q 390 219 429 174 q 314 311 351 264 q 297 332 307 319 q 282 307 288 319 q 237 207 258 257 q 192 107 215 157 q 122 -33 161 39 q 105 -53 115 -44 q 83 -71 94 -61 l 50 -71 m 503 171 q 501 167 501 168 l 501 163 q 538 117 517 136 q 589 88 560 97 q 632 92 615 81 q 641 100 638 96 q 642 114 644 104 q 590 110 613 101 q 547 138 568 119 q 531 151 539 144 q 515 164 524 157 q 509 167 513 167 q 503 171 506 168 m 78 -40 q 69 -31 72 -32 q 47 35 43 -6 q 49 51 49 43 q 50 67 50 58 q 47 79 50 71 q 31 -12 17 33 q 38 -25 33 -19 q 47 -36 42 -31 q 78 -40 60 -49 m 82 933 q 38 894 44 938 q 64 839 31 844 q 58 888 57 864 q 82 933 58 911 m 690 978 q 673 995 679 993 q 654 993 667 997 q 625 973 636 986 q 615 944 614 960 q 633 956 625 949 q 649 968 640 963 q 667 977 657 974 q 690 978 678 981 z "},"Y":{"ha":803,"x_min":0,"x_max":761,"o":"m 532 326 q 524 319 528 322 q 517 311 519 315 q 390 240 458 254 q 244 249 321 226 q 134 312 178 268 q 58 414 90 356 q 0 651 0 524 q 8 765 0 710 q 36 876 17 821 q 46 901 40 889 q 63 922 51 913 q 108 940 82 942 q 151 915 135 938 q 165 887 161 901 q 171 857 168 872 q 178 796 175 826 q 186 735 182 765 q 192 692 189 714 q 201 650 196 671 q 231 559 213 603 q 278 475 250 515 q 294 457 285 465 q 313 442 303 449 q 333 433 324 433 q 403 437 371 426 q 454 482 435 447 q 488 544 472 513 q 518 607 504 575 q 556 711 539 658 q 583 818 574 764 q 590 866 588 842 q 597 914 593 890 q 599 933 599 924 q 603 953 600 942 q 661 1007 614 1004 q 699 996 682 1008 q 722 958 715 983 q 747 832 739 896 q 761 636 761 733 q 746 439 761 539 q 735 369 740 403 q 724 299 731 335 q 621 51 699 161 q 573 -7 599 19 q 511 -50 547 -33 q 403 -56 460 -75 q 365 -30 378 -47 q 354 11 353 -12 q 369 47 356 32 q 403 63 382 63 q 453 93 438 64 q 480 143 467 118 q 504 194 493 168 q 522 251 515 222 q 536 308 529 279 q 538 324 538 313 q 535 325 536 325 q 532 326 533 325 m 361 279 l 358 285 q 339 288 344 288 q 160 379 228 296 q 134 411 146 394 q 110 444 122 428 q 104 451 107 447 q 99 458 101 454 q 93 456 93 456 q 96 444 94 449 q 100 433 97 439 q 175 332 128 372 q 240 288 206 306 q 314 268 274 271 q 339 268 326 267 q 361 279 351 269 m 110 913 l 106 917 q 74 897 85 913 q 56 864 63 882 q 56 786 33 813 q 63 810 60 799 q 68 832 65 821 q 76 854 72 843 q 85 875 79 865 q 97 894 90 886 q 110 913 103 903 m 388 32 q 418 -36 375 -12 q 488 -37 465 -62 q 458 -27 472 -32 q 431 -15 444 -22 q 406 3 415 -10 q 388 32 396 15 m 624 892 q 628 890 626 890 q 632 889 629 890 q 638 915 635 901 q 649 939 642 928 q 662 960 654 950 q 678 982 669 971 q 659 983 667 985 q 642 971 651 982 q 624 892 614 935 z "},"Z":{"ha":676,"x_min":0,"x_max":635,"o":"m 415 794 q 409 797 411 796 q 404 799 407 799 q 317 799 360 799 q 229 797 274 800 q 183 790 206 796 q 139 776 161 785 q 96 769 117 768 q 51 802 64 775 q 51 858 38 829 q 71 883 58 874 q 99 900 83 893 q 289 947 188 939 q 349 952 319 950 q 407 956 378 954 q 474 956 440 958 q 539 944 507 953 q 587 922 567 938 q 619 884 607 906 q 633 836 631 863 q 626 783 635 810 q 601 729 617 754 q 565 681 585 704 q 472 565 518 622 q 381 449 425 507 q 307 348 343 399 q 242 242 271 297 q 223 203 231 222 q 206 164 215 183 q 204 158 204 161 q 203 149 204 154 q 221 152 213 151 q 236 156 229 153 q 281 167 260 161 q 326 179 303 174 q 415 192 371 190 q 503 188 458 194 q 552 172 529 182 q 592 140 575 163 q 610 108 604 125 q 607 71 615 90 q 584 42 599 51 q 550 31 569 33 q 522 30 536 29 q 496 33 508 31 q 428 40 461 40 q 361 35 394 39 q 228 1 292 26 q 172 -12 200 -10 q 115 -12 143 -15 q 35 28 65 -7 q 1 115 4 63 q 10 201 0 160 q 38 282 19 242 q 85 375 58 331 q 142 464 111 419 q 247 603 190 538 q 364 735 303 669 q 383 756 374 746 q 401 776 392 765 q 408 784 406 779 q 415 794 411 789 m 108 18 q 110 22 110 21 q 113 25 111 22 q 103 35 107 31 q 93 46 99 40 q 61 114 65 75 q 60 169 58 142 q 69 224 61 197 q 78 249 74 236 q 85 274 82 261 q 86 293 86 278 q 78 283 81 286 q 74 278 76 281 q 52 232 61 256 q 40 183 43 208 q 36 126 35 154 q 50 69 38 97 q 65 44 57 56 q 88 25 74 32 q 98 22 93 22 q 108 18 103 21 m 463 792 q 457 794 460 794 q 452 790 454 792 q 447 786 450 789 q 389 724 418 754 q 332 661 360 693 q 308 631 319 646 q 285 601 296 617 q 280 590 282 596 q 275 578 278 585 q 290 582 286 578 q 374 680 332 631 q 457 779 415 729 q 460 785 460 782 q 463 792 461 789 m 76 857 q 67 837 67 846 q 71 821 68 828 q 107 792 82 801 q 153 794 132 783 q 158 799 156 796 q 167 807 161 801 q 138 810 151 808 q 112 816 124 811 q 91 830 100 821 q 76 857 82 839 m 574 118 q 560 100 567 108 q 544 83 553 92 q 525 74 538 75 q 507 61 513 74 q 567 74 542 44 q 574 118 586 96 z "},"a":{"ha":500,"x_min":0,"x_max":458,"o":"m 458 307 q 453 261 456 283 q 446 215 450 239 q 421 178 440 192 q 376 167 401 164 q 340 186 357 168 q 321 225 324 204 q 308 286 317 257 q 304 292 308 289 q 297 294 300 294 q 233 289 265 292 q 171 276 201 286 q 131 231 139 267 q 110 169 124 199 q 88 149 103 154 q 57 144 74 143 q 7 183 21 149 q 1 219 0 201 q 7 254 3 236 q 37 364 22 308 q 69 474 51 419 q 108 577 86 526 q 163 674 131 628 q 268 739 201 735 q 344 710 308 740 q 404 619 385 675 q 426 544 417 582 q 438 467 435 506 q 445 412 440 439 q 454 357 450 385 q 456 332 456 344 q 457 307 456 319 l 458 307 m 193 417 q 196 415 196 414 q 278 424 239 418 q 282 426 281 424 q 283 432 283 429 l 271 519 q 266 538 268 529 q 261 556 264 546 q 222 487 239 521 q 193 417 204 453 m 164 621 q 166 619 165 619 q 168 618 167 619 q 188 641 179 629 q 208 664 197 653 q 233 684 219 675 q 261 704 246 693 q 233 702 244 708 q 210 688 221 696 q 180 659 193 675 q 164 621 167 643 m 65 167 q 46 264 29 207 q 26 234 31 254 q 29 194 22 214 q 65 167 39 164 m 346 279 q 346 225 335 253 q 358 201 351 211 q 381 188 365 192 q 387 188 383 186 q 393 189 390 189 q 394 191 393 190 q 394 193 394 192 q 360 231 368 208 q 346 279 353 254 z "},"h":{"ha":449,"x_min":0,"x_max":406,"o":"m 0 339 q 3 343 1 342 q 4 346 4 344 q 6 383 6 365 q 7 418 6 400 q 8 473 8 446 q 10 528 7 500 q 14 574 11 551 q 19 619 17 596 q 72 669 28 663 q 142 642 115 678 q 158 606 154 625 q 164 567 161 586 q 167 524 167 544 q 171 479 168 503 q 213 482 192 481 q 256 485 233 483 q 256 494 256 490 q 257 501 257 497 q 256 543 257 522 q 257 583 256 564 q 258 635 257 610 q 260 688 258 661 q 275 728 261 710 q 310 751 289 746 q 351 747 331 756 q 381 719 371 739 q 390 694 388 708 q 394 667 392 681 q 397 626 396 656 q 400 559 399 597 q 402 477 401 521 q 404 393 403 433 q 406 322 406 353 q 406 275 406 290 q 397 167 403 221 q 373 124 394 140 q 324 111 351 108 q 281 132 299 113 q 263 176 263 151 q 262 193 261 185 q 263 211 263 201 q 260 277 261 244 q 260 343 260 310 q 247 356 260 356 q 211 352 229 353 q 175 349 193 351 q 169 344 172 349 q 167 335 167 339 q 163 292 164 313 q 157 250 161 271 q 139 208 153 225 q 99 183 125 190 q 48 189 72 176 q 15 226 24 201 q 8 253 10 239 q 4 281 7 267 q 2 288 3 285 q 0 296 1 292 l 0 339 m 339 140 q 335 146 336 143 q 331 150 333 149 q 307 178 314 161 q 296 214 300 194 q 293 229 296 218 q 288 236 293 231 q 285 233 286 233 q 282 231 283 232 q 278 210 278 222 q 283 185 279 197 q 292 162 286 172 q 306 146 299 151 q 320 138 313 140 q 339 140 328 136 m 28 286 q 39 247 29 267 q 64 217 49 226 q 78 211 71 213 q 92 208 85 210 q 97 209 94 207 q 103 213 100 211 q 99 217 100 215 q 96 221 99 219 q 53 260 67 235 q 46 276 49 268 q 39 293 43 285 q 36 295 38 294 q 33 299 35 296 q 31 295 32 296 q 29 292 29 294 q 28 289 28 290 q 28 286 29 288 m 290 651 q 299 667 297 664 q 312 697 306 682 q 333 721 318 713 q 336 726 336 722 q 338 732 336 729 q 332 733 335 732 q 326 733 329 733 q 291 703 303 729 q 290 651 279 678 m 49 571 q 51 575 50 574 q 53 578 53 576 q 67 614 60 597 q 93 642 75 631 q 94 647 96 644 q 88 650 90 651 q 68 642 76 647 q 45 608 51 631 q 49 571 39 586 z "},"i":{"ha":197,"x_min":0,"x_max":156,"o":"m 146 313 q 140 272 143 293 q 132 231 138 250 q 97 190 122 199 q 43 197 71 181 q 24 218 29 206 q 15 246 18 231 q 11 281 13 264 q 8 315 10 297 q 3 401 6 358 q 0 486 0 443 q 6 558 1 522 q 13 631 10 594 q 14 644 14 638 q 15 658 14 651 q 38 699 19 683 q 78 713 56 714 q 139 661 126 713 q 149 606 146 633 q 156 551 153 579 l 146 313 m 40 603 q 44 614 43 610 q 46 622 44 618 q 60 656 53 639 q 90 681 68 674 q 93 686 93 681 q 88 690 93 690 q 74 690 81 693 q 41 658 54 685 q 35 611 28 631 q 40 603 35 608 m 42 285 q 36 250 31 271 q 51 221 42 229 q 66 212 58 214 q 85 217 74 210 q 56 247 67 231 q 42 285 44 263 z "},"j":{"ha":283,"x_min":-10,"x_max":242,"o":"m 92 589 q 72 585 81 586 q 57 583 64 583 q 7 617 22 585 q 15 679 -10 650 q 50 704 31 697 q 90 715 69 711 q 114 719 101 718 q 138 722 126 721 q 173 715 157 724 q 200 690 189 706 q 224 645 217 669 q 235 594 232 621 q 240 532 238 563 q 240 469 242 501 q 235 390 239 429 q 228 311 232 351 q 206 201 221 254 q 171 94 192 147 q 145 45 160 68 q 107 4 131 22 q 31 10 68 -21 q 13 38 19 19 q 17 78 7 57 q 50 164 38 119 q 69 254 63 208 q 72 275 72 265 q 74 294 72 285 q 78 363 76 329 q 83 433 81 397 q 88 510 86 472 q 92 589 89 549 m 58 100 q 51 96 54 97 q 46 92 49 94 q 38 72 39 83 q 39 51 36 61 q 49 31 42 40 q 65 18 56 22 q 71 17 68 17 q 76 18 74 18 q 75 24 75 21 q 74 29 75 26 q 58 89 46 56 l 58 100 m 36 665 q 38 617 15 639 q 83 613 58 593 q 50 630 63 618 q 36 665 38 642 z "},"k":{"ha":432,"x_min":-1,"x_max":393,"o":"m 167 601 q 185 633 176 617 q 206 665 194 650 q 240 713 222 689 q 276 758 257 736 q 317 781 292 776 q 367 765 343 785 q 388 731 382 753 q 382 690 393 710 q 365 662 375 675 q 344 635 354 649 q 310 583 326 608 q 278 532 294 558 q 267 515 272 524 q 256 496 261 506 q 256 483 253 489 q 314 391 292 440 q 351 289 336 342 q 369 228 360 258 q 385 165 378 197 q 386 129 389 147 q 368 97 383 111 q 313 85 342 75 q 274 124 285 94 q 262 153 267 139 q 250 183 257 168 q 216 259 233 221 q 182 336 199 297 l 176 336 q 172 321 174 329 q 167 306 169 313 q 159 270 163 288 q 149 238 156 253 q 117 204 138 214 q 71 197 97 194 q 10 247 28 203 q 1 288 4 265 q 3 372 -1 331 q 10 456 7 414 l 18 560 q 22 617 21 588 q 26 674 24 646 q 56 721 29 704 q 106 728 79 736 q 144 692 133 719 q 154 657 151 675 q 161 619 157 639 q 163 610 163 615 q 164 601 163 606 l 167 601 m 257 260 q 251 257 254 257 q 256 240 254 249 q 261 225 258 232 q 276 184 268 204 q 294 144 283 164 q 308 128 299 135 q 326 117 318 122 q 337 115 331 114 q 350 118 343 117 q 342 128 343 126 q 311 155 322 138 q 292 192 300 172 q 281 218 286 206 q 269 243 276 231 q 263 252 267 249 q 257 260 260 256 m 38 328 l 31 328 q 28 312 29 319 q 26 297 26 304 q 41 255 26 276 q 71 228 56 233 q 92 229 78 226 q 86 237 89 232 q 81 244 83 242 q 42 313 46 269 q 40 320 40 317 q 38 328 39 324 m 46 601 l 53 601 q 61 628 58 614 q 68 656 64 642 q 79 682 72 669 q 101 703 86 694 q 85 704 89 706 q 53 676 61 694 q 43 635 46 657 q 43 618 42 626 q 46 601 44 610 m 249 678 q 253 675 250 678 l 264 686 q 287 712 275 699 q 310 739 299 725 q 317 749 314 743 q 304 750 307 751 q 258 706 274 739 q 253 692 256 699 q 249 678 251 685 z "},"l":{"ha":274,"x_min":0,"x_max":233,"o":"m 154 165 q 183 157 169 160 q 207 147 196 154 q 228 124 222 139 q 231 93 233 110 q 215 60 228 74 q 188 44 203 47 q 128 36 158 38 q 65 57 97 35 q 7 167 11 97 q 3 265 6 215 q 0 364 0 314 q 3 444 0 404 q 8 524 6 483 q 12 574 10 549 q 15 625 14 599 q 18 681 18 653 q 21 738 18 710 q 25 768 22 753 q 31 799 28 783 q 53 835 35 821 q 94 847 72 849 q 135 831 118 847 q 156 792 153 815 q 164 701 161 749 q 166 672 165 686 q 167 642 167 657 q 166 561 167 601 q 164 481 165 521 q 162 375 163 428 q 158 269 161 322 q 157 223 158 246 q 154 176 156 200 l 154 165 m 140 60 q 141 62 140 61 q 142 65 142 63 q 138 68 140 65 q 82 109 103 83 q 50 171 61 135 q 47 174 49 174 q 42 178 44 175 q 39 173 40 175 q 38 168 38 171 q 59 105 40 136 q 115 61 78 74 q 127 59 121 58 q 140 60 133 60 m 118 814 q 94 821 108 822 q 68 808 79 819 q 48 769 53 793 q 54 732 43 746 q 64 758 60 746 q 74 783 68 771 q 92 803 81 797 q 118 814 103 810 z "},"m":{"ha":607,"x_min":-1,"x_max":567,"o":"m 418 585 q 397 549 406 568 q 382 510 389 529 q 357 417 369 464 q 332 324 344 371 q 308 291 325 304 q 271 278 290 278 q 235 293 251 278 q 214 329 218 308 q 204 393 208 361 q 193 457 200 425 q 183 494 189 476 q 169 533 176 513 q 165 527 167 529 q 161 522 163 525 q 148 475 151 499 q 143 428 144 451 q 144 371 143 400 q 146 314 146 342 q 134 268 146 288 q 100 242 122 249 q 35 247 64 228 q 3 306 6 267 q 3 410 -1 357 q 12 491 6 450 q 38 571 18 532 q 72 630 53 601 q 124 674 92 658 q 192 683 160 692 q 247 642 224 674 q 263 619 256 631 q 276 593 269 607 l 293 626 q 328 685 308 658 q 378 732 349 713 q 508 725 446 781 q 532 693 524 711 q 546 656 540 675 q 564 540 561 597 q 564 422 567 482 q 556 303 564 363 q 548 267 554 283 q 525 238 542 250 q 493 226 510 228 q 462 232 476 225 q 437 253 447 239 q 425 288 426 267 q 421 372 422 329 q 419 456 419 414 q 419 512 418 483 q 421 568 421 540 l 421 585 l 418 585 m 240 438 q 232 436 238 436 q 235 395 235 415 q 240 356 236 375 q 257 319 242 339 q 265 313 260 315 q 276 308 271 311 q 282 309 279 307 q 288 313 285 311 q 285 317 286 315 q 282 321 283 318 q 270 339 276 331 q 261 358 264 347 q 253 386 256 372 q 246 415 250 400 q 243 426 244 421 q 240 438 242 431 m 181 654 q 133 654 168 671 q 88 613 107 640 q 74 565 68 585 q 95 595 85 581 q 119 621 106 610 q 149 639 132 632 q 181 654 165 646 m 456 361 q 451 360 454 360 q 447 310 442 339 q 469 265 453 281 q 506 254 485 253 q 515 261 510 256 q 511 265 513 264 q 507 268 510 267 q 469 306 478 276 q 465 323 467 314 q 461 342 464 332 q 456 361 458 353 m 325 628 q 331 624 328 626 q 351 653 342 639 q 374 679 361 668 q 404 700 388 692 q 438 718 421 708 q 400 721 421 728 q 353 681 368 707 q 325 628 339 656 m 89 263 q 69 281 79 272 q 53 301 60 290 q 43 325 46 313 q 36 350 40 338 q 32 347 32 347 q 32 299 22 326 q 61 261 42 272 q 89 263 76 254 z "},"n":{"ha":465,"x_min":0,"x_max":424,"o":"m 160 404 q 160 390 160 397 q 160 374 161 382 q 157 325 157 350 q 146 276 157 300 q 74 225 125 225 q 30 242 50 225 q 3 283 10 258 q 1 297 1 290 q 0 310 0 303 l 0 463 q 1 523 0 493 q 3 585 1 553 q 7 624 4 604 q 14 664 10 644 q 58 711 22 700 q 97 710 79 718 q 125 685 114 701 q 169 624 149 654 q 210 561 189 593 q 235 521 222 542 q 261 481 249 500 q 263 482 263 482 q 265 483 264 482 q 267 494 265 490 q 267 562 267 528 q 269 629 267 596 q 274 667 271 649 q 283 703 278 685 q 312 742 290 726 q 353 754 333 757 q 397 735 379 751 q 419 693 415 719 q 424 615 424 658 q 421 526 424 571 q 414 440 418 481 q 407 374 410 400 q 396 319 403 346 q 369 272 389 293 q 319 247 349 249 q 265 265 290 246 q 230 306 244 283 q 200 349 215 328 q 185 371 192 360 q 172 393 179 382 q 163 406 167 401 q 160 404 163 404 m 354 290 q 347 290 347 290 q 305 298 324 288 q 272 328 286 308 q 261 341 267 335 q 250 354 256 347 q 245 357 247 357 q 240 358 243 357 q 240 353 240 356 q 240 349 239 351 q 256 323 249 336 q 274 299 264 310 q 301 278 285 285 q 336 274 317 271 q 349 277 343 275 q 354 290 354 279 m 308 615 q 317 647 314 631 q 326 679 321 664 q 342 707 332 694 q 371 726 353 719 q 335 724 357 742 q 316 701 324 715 q 305 672 308 688 q 301 642 301 657 q 308 615 301 626 m 31 344 q 28 344 29 344 q 26 343 28 343 q 24 338 25 340 q 22 333 22 336 q 22 321 22 326 q 24 308 22 315 q 45 266 26 285 q 85 247 64 247 q 90 249 88 247 q 96 251 93 250 q 92 256 93 254 q 89 260 92 258 q 53 288 65 269 q 35 331 40 306 q 33 337 35 333 q 31 344 32 340 m 83 679 q 61 682 72 690 q 35 651 44 672 q 31 611 26 631 q 32 607 31 608 q 35 603 33 606 q 40 607 38 606 q 43 611 42 608 q 47 628 47 619 q 83 679 54 664 z "},"o":{"ha":358,"x_min":-3,"x_max":317,"o":"m 75 597 q 59 614 68 606 q 44 633 50 622 q 43 682 32 657 q 82 717 54 707 q 153 721 118 728 q 219 694 188 714 q 280 634 260 671 q 310 553 300 597 q 316 498 317 525 q 310 443 315 471 q 301 394 306 419 q 285 347 296 369 q 245 286 269 313 q 181 250 221 260 q 143 247 161 244 q 107 257 125 250 q 4 386 19 293 q 5 479 -3 433 q 40 565 13 525 q 57 583 47 575 q 75 597 67 590 m 150 581 q 159 540 163 558 q 142 503 156 521 q 136 489 136 494 q 128 429 131 460 q 129 398 126 414 q 144 369 132 382 q 165 369 156 360 q 183 397 178 382 q 192 429 189 413 q 197 483 197 457 q 189 536 197 508 q 175 562 183 550 q 150 581 167 574 m 38 413 l 32 413 l 32 393 q 71 308 38 349 q 161 268 107 268 q 167 270 164 268 q 174 274 171 272 q 163 282 167 281 q 131 290 146 285 q 103 307 115 296 q 63 350 79 326 q 40 404 47 374 q 38 413 40 407 m 214 419 q 228 447 224 426 q 233 489 233 467 q 227 531 232 511 q 214 556 222 550 l 214 419 m 99 618 q 103 621 100 618 q 94 636 100 625 q 84 661 88 649 q 88 688 81 674 q 89 697 89 690 q 83 696 86 696 q 78 694 81 696 q 67 650 60 676 q 99 618 74 625 z "},"p":{"ha":444,"x_min":-6,"x_max":404,"o":"m 4 353 l 4 435 q 6 527 6 481 q 7 619 6 574 q 6 633 7 629 q 10 687 -6 661 q 46 724 25 713 q 94 742 69 736 q 144 751 118 749 q 230 744 189 756 q 307 704 271 733 q 367 638 343 675 q 397 554 390 601 q 402 489 404 521 q 389 425 400 457 q 265 281 356 329 q 223 260 244 269 q 178 247 201 250 q 167 240 167 246 q 167 226 167 233 q 167 197 167 211 q 167 168 168 183 q 142 124 163 142 q 99 103 122 106 q 38 119 58 100 q 10 163 17 139 q 8 175 8 169 q 7 188 7 181 l 7 353 l 4 353 m 167 406 q 220 442 196 411 q 243 521 244 472 q 237 548 243 533 q 219 576 231 563 q 190 598 207 589 q 153 607 174 607 q 160 507 156 557 q 167 406 164 457 m 38 258 q 35 258 36 258 q 33 257 35 257 q 30 201 28 229 q 51 150 32 174 q 66 137 57 142 q 85 126 75 132 q 92 127 88 125 q 100 131 96 129 q 95 136 97 133 q 90 140 93 139 q 69 156 79 147 q 56 179 60 165 q 48 213 51 196 q 42 244 44 229 q 38 258 40 250 m 257 460 q 272 463 268 458 q 278 474 275 468 q 263 592 306 536 q 249 597 260 594 l 246 594 q 269 529 265 563 q 257 460 272 496 m 29 642 l 29 638 q 33 626 32 632 q 38 615 35 621 q 43 626 40 621 q 47 636 46 631 q 88 710 49 682 q 90 713 90 711 q 92 717 90 715 q 88 719 89 718 q 83 721 86 721 q 69 715 75 718 q 40 684 49 703 q 29 642 32 665 z "},"q":{"ha":447,"x_min":-4,"x_max":413,"o":"m 100 607 q 74 615 86 610 q 53 632 61 619 q 56 699 29 668 q 110 740 81 725 q 178 757 140 754 q 224 756 201 758 q 268 746 246 754 q 393 608 367 707 q 401 468 413 536 q 356 335 390 400 q 327 297 344 314 q 294 260 310 279 q 318 243 306 251 q 341 213 333 232 q 343 178 349 194 q 322 144 336 157 q 286 131 307 131 q 253 140 267 131 q 221 151 238 150 q 186 150 204 153 q 138 134 160 144 q 96 108 117 124 q 42 101 69 89 q 8 139 15 113 q 11 177 4 160 q 33 208 18 194 q 58 227 44 219 q 82 243 71 235 q 94 250 86 246 q 21 328 46 283 q 1 431 -4 372 q 8 483 3 457 q 25 533 14 510 q 54 575 36 556 q 100 607 72 594 m 111 607 q 115 606 114 607 q 119 606 117 606 q 168 575 153 607 q 174 544 175 560 q 158 517 172 529 q 133 461 136 496 q 134 418 131 439 q 158 383 138 397 q 190 373 174 374 q 221 388 207 372 q 271 483 256 429 q 278 552 281 519 q 249 614 276 585 q 194 640 226 638 q 142 628 163 643 q 127 617 135 622 q 111 607 119 613 m 307 597 q 301 596 304 596 q 303 579 301 585 q 303 513 307 546 q 283 450 300 481 q 281 439 281 444 q 279 426 281 433 q 290 434 285 431 q 299 442 296 438 q 318 558 331 494 q 313 577 315 568 q 307 597 310 586 m 51 510 q 67 532 60 521 q 82 551 74 543 q 99 568 89 561 q 121 586 110 575 q 89 579 101 588 q 65 560 76 571 q 51 538 57 550 q 51 510 46 526 m 317 215 l 311 215 q 281 168 307 182 q 276 164 278 167 q 272 158 275 161 q 278 156 275 157 q 285 154 282 154 q 311 169 299 156 q 322 196 324 183 q 319 206 321 201 q 317 215 318 211 m 53 350 q 49 347 51 350 q 67 312 57 328 q 96 285 78 296 q 102 284 99 283 q 110 283 106 285 q 108 290 108 286 q 104 296 107 293 q 83 319 93 307 q 63 343 74 332 q 53 350 58 347 m 78 124 q 65 136 69 129 q 54 151 60 143 q 43 167 49 158 q 40 173 40 169 q 38 179 39 176 q 33 172 35 175 q 31 164 32 168 l 31 158 q 47 130 32 142 q 78 124 61 118 m 108 628 q 110 632 108 631 q 106 636 107 635 q 103 640 106 638 q 86 656 93 647 q 76 678 79 664 q 71 682 76 679 q 68 678 69 679 q 65 674 67 676 q 70 649 63 663 q 89 629 78 635 q 98 628 93 628 q 108 628 103 629 z "},"r":{"ha":453,"x_min":-1,"x_max":424,"o":"m 279 350 q 319 265 299 307 q 372 183 340 222 q 386 169 379 176 q 400 154 393 163 q 403 97 421 128 q 353 65 388 65 q 314 76 331 65 q 285 97 300 88 q 258 118 269 106 q 201 192 226 153 q 181 233 190 211 q 161 275 172 254 q 151 283 158 279 q 149 258 150 271 q 146 233 147 246 q 145 206 146 219 q 138 179 144 192 q 106 146 126 157 q 63 138 86 135 q 21 159 39 142 q 1 200 3 176 q 0 242 -1 221 q 3 285 1 263 q 6 333 4 308 q 8 383 7 358 l 8 446 q 7 522 7 483 q 6 597 7 560 q 3 628 4 613 q 0 660 1 644 q 15 708 0 688 q 57 735 29 728 q 122 749 89 742 q 188 754 154 757 q 328 697 267 750 q 397 589 381 653 q 349 407 424 482 q 316 378 333 392 q 279 350 299 365 m 151 476 q 244 515 206 481 q 256 529 251 521 q 258 544 260 538 q 254 565 258 556 q 243 583 250 575 q 196 619 228 607 q 139 625 164 632 q 145 551 142 588 q 151 476 149 514 m 276 617 q 274 615 275 615 q 272 614 274 615 q 274 609 274 611 q 275 604 274 607 q 268 521 294 560 q 257 505 263 513 q 246 490 251 497 q 242 479 244 489 q 247 480 244 481 q 253 481 250 479 q 294 535 283 497 q 289 603 306 572 q 283 610 286 606 q 276 617 279 614 m 276 168 q 274 167 274 167 q 275 158 274 160 q 298 131 286 144 q 324 107 310 118 q 340 100 331 101 q 358 96 349 99 q 365 97 361 94 q 372 103 369 100 q 367 108 369 106 q 361 113 364 111 q 326 128 342 118 q 296 151 311 139 q 285 160 290 156 q 276 168 281 164 m 33 267 q 28 260 28 261 q 26 257 26 258 q 25 254 26 256 q 54 181 22 208 q 76 172 63 175 q 88 175 78 172 q 81 186 85 183 q 38 254 42 208 q 36 260 38 257 q 33 267 35 263 m 39 642 q 41 642 40 642 q 43 643 42 643 q 44 648 44 646 q 46 653 44 650 q 54 681 49 668 q 72 704 60 693 q 75 710 75 707 q 76 715 75 713 q 70 716 74 715 q 64 715 67 717 q 40 688 49 708 q 33 653 31 668 q 36 647 35 650 q 39 642 38 644 z "},"s":{"ha":310,"x_min":-4,"x_max":274,"o":"m 115 153 q 44 186 69 150 q 36 233 31 207 q 64 275 42 260 q 88 291 75 283 q 111 307 100 299 q 128 334 128 318 q 111 361 128 350 q 89 374 100 368 q 67 386 78 379 q 3 482 14 419 q 11 571 -4 531 q 54 647 26 611 q 107 700 78 678 q 172 733 136 722 q 213 738 193 740 q 247 719 232 735 q 268 667 271 696 q 238 622 265 639 q 172 529 185 589 q 179 506 168 515 q 219 467 201 488 q 250 421 238 447 q 267 310 274 371 q 218 207 260 250 q 182 175 200 189 q 139 156 164 161 q 127 154 132 154 q 115 153 122 154 m 85 431 q 61 476 72 454 q 51 524 50 497 q 60 572 53 549 q 82 618 68 594 q 61 605 71 615 q 44 580 51 594 q 34 548 38 565 q 32 514 31 531 q 49 458 33 485 q 85 431 65 432 m 71 236 l 65 236 q 65 226 65 231 q 65 217 64 221 q 81 190 68 201 q 113 176 94 179 q 124 178 119 176 q 136 182 129 181 q 127 188 132 185 q 117 193 122 192 q 90 206 101 199 q 75 231 78 213 q 71 236 75 232 m 232 694 q 216 663 224 678 q 200 633 208 649 l 204 629 q 222 642 215 633 q 232 661 228 650 q 238 676 236 668 q 232 694 239 685 z "},"t":{"ha":415,"x_min":-4,"x_max":374,"o":"m 239 871 q 272 873 256 872 q 304 876 289 874 q 336 872 322 878 q 358 854 350 865 q 370 829 367 843 q 371 803 374 815 q 342 765 364 779 q 299 757 321 751 q 273 759 286 760 q 244 758 260 758 q 247 740 246 749 q 249 725 249 732 l 249 678 q 250 596 250 638 q 251 514 250 554 q 256 431 253 472 q 260 347 258 389 q 262 240 261 294 q 261 133 263 186 q 260 94 261 114 q 247 54 258 74 q 195 10 228 22 q 131 19 163 -1 q 90 92 90 44 q 88 204 88 149 q 90 315 89 260 q 90 372 90 343 q 92 428 90 400 q 96 508 94 468 q 100 588 97 547 q 103 637 101 613 q 108 686 106 661 q 110 715 110 701 q 113 743 111 729 q 113 750 114 746 q 113 758 113 754 q 86 759 99 758 q 61 761 74 760 q 3 803 15 763 q 12 847 -4 826 q 51 869 28 868 q 81 871 67 871 q 111 874 96 871 q 117 878 114 874 q 121 886 119 882 q 123 906 124 896 q 125 925 122 915 q 144 957 129 944 q 185 967 160 969 q 216 950 203 964 q 232 915 229 936 q 235 894 235 904 q 239 871 236 885 m 115 168 q 114 167 114 167 q 119 131 117 149 q 126 96 121 114 q 165 49 133 61 q 188 46 178 44 q 190 57 201 46 l 182 61 q 143 106 151 74 q 139 127 140 117 q 135 149 138 138 q 131 168 132 158 q 128 188 131 178 q 121 193 128 189 q 117 186 119 192 q 117 177 117 182 q 115 168 117 172 m 338 840 q 326 808 335 821 q 301 786 317 796 q 300 783 300 786 q 301 779 300 781 q 308 776 304 776 q 338 797 325 776 q 346 832 351 817 q 342 836 344 835 q 338 840 340 838 m 39 836 q 38 797 22 822 q 64 782 47 781 q 51 810 57 797 q 39 836 46 822 m 151 901 q 168 922 160 913 q 183 943 176 932 q 183 949 186 946 q 176 951 181 951 q 164 944 169 950 q 154 931 158 939 q 149 915 150 924 q 151 901 149 907 z "},"u":{"ha":504,"x_min":0,"x_max":463,"o":"m 311 326 q 301 301 306 314 q 290 275 297 289 q 258 219 278 243 q 206 179 238 194 q 137 172 174 165 q 74 203 100 179 q 6 338 11 257 q 1 410 3 374 q 0 482 0 446 q 8 565 0 524 q 38 609 15 599 q 88 611 61 619 q 116 592 107 606 q 126 560 125 579 q 138 472 131 515 q 157 386 146 429 q 164 368 160 376 q 171 350 168 360 l 176 350 q 188 375 182 363 q 199 401 193 388 q 231 496 215 449 q 267 590 247 543 q 283 630 274 610 q 306 668 293 650 q 338 697 319 689 q 374 702 356 704 q 409 689 393 700 q 436 660 425 678 q 460 568 460 618 q 462 512 461 540 q 463 456 463 483 q 463 370 463 413 q 460 286 463 328 q 454 248 458 267 q 435 214 450 229 q 404 194 421 199 q 372 193 388 189 q 342 209 356 197 q 322 239 329 221 q 317 263 318 250 q 314 286 317 275 q 313 306 313 297 q 314 326 314 315 l 311 326 m 194 210 q 193 212 193 211 q 192 214 193 213 l 190 215 l 179 215 q 145 220 161 217 q 114 235 129 224 q 63 300 82 260 q 53 315 58 307 q 51 315 51 315 q 49 314 50 314 q 48 308 49 311 q 49 303 47 306 q 61 275 56 289 q 75 249 67 261 q 115 212 92 225 q 169 201 138 199 q 182 204 176 201 q 194 210 188 207 m 297 583 q 303 582 301 583 q 311 594 307 589 q 318 607 315 600 q 341 642 328 626 q 375 665 354 657 l 376 665 q 383 674 382 671 q 379 676 381 675 q 375 678 378 678 q 361 675 368 676 q 347 671 354 674 q 316 643 328 660 q 297 606 304 626 q 297 595 296 600 q 297 583 297 590 m 350 326 l 346 326 q 340 318 340 321 q 341 279 339 299 q 354 243 343 260 q 390 222 371 222 q 395 224 393 222 q 400 226 397 225 q 397 231 397 229 q 393 233 396 232 q 379 244 386 240 q 369 256 372 249 q 361 281 364 268 q 354 307 358 294 q 352 317 353 313 q 350 326 351 321 m 75 592 q 51 589 64 601 q 33 536 29 568 q 40 526 36 531 q 47 536 46 532 q 49 545 50 540 q 51 554 49 550 q 63 573 57 564 q 75 592 68 582 z "},"v":{"ha":408,"x_min":0,"x_max":368,"o":"m 192 443 q 202 484 197 464 q 214 525 207 504 q 233 597 224 561 q 251 668 242 632 q 258 696 256 682 q 268 722 261 710 q 317 746 282 749 q 361 711 349 742 q 366 686 368 699 q 361 661 364 674 q 327 520 344 590 q 293 379 310 450 q 284 341 288 360 q 275 303 281 322 q 255 256 268 278 q 218 221 242 235 q 178 208 200 210 q 133 212 156 206 q 92 232 111 218 q 63 269 74 246 q 44 321 50 294 q 33 375 39 347 q 20 436 26 406 q 10 499 14 467 q 3 551 6 525 q 0 603 1 576 q 15 638 0 622 q 50 660 31 654 q 92 655 71 664 q 121 626 113 646 q 144 570 133 599 q 165 513 154 542 q 176 478 172 496 q 188 443 181 461 l 192 443 m 79 344 q 78 334 79 338 q 78 328 78 331 q 88 295 82 311 q 107 265 94 279 q 178 233 136 229 q 187 235 182 233 q 196 239 192 238 q 158 257 176 250 q 126 276 140 264 q 101 307 111 289 q 79 344 92 325 m 21 586 q 23 576 22 581 q 25 567 24 572 q 32 558 26 564 q 35 563 33 561 q 38 568 38 565 q 39 579 39 574 q 40 590 39 585 q 47 610 43 601 q 58 625 50 618 q 63 629 61 626 q 68 635 65 632 q 60 637 64 635 q 53 638 56 639 q 40 628 46 633 q 29 617 33 624 q 24 601 25 610 q 21 586 24 593 m 276 657 q 286 671 281 663 q 299 694 293 682 q 319 713 304 707 l 319 717 q 317 722 319 722 q 303 722 310 725 q 278 696 288 717 q 276 657 269 675 z "},"b":{"ha":501,"x_min":0,"x_max":463,"o":"m 338 532 q 354 524 346 528 q 371 515 363 521 q 422 478 399 500 q 453 422 444 456 q 458 347 463 383 q 431 276 453 311 q 328 183 392 218 q 267 162 299 168 q 204 153 236 156 q 163 151 183 151 q 121 150 142 150 q 53 172 83 151 q 14 226 24 193 q 7 272 7 251 q 6 349 6 311 q 6 426 6 388 q 8 459 6 443 q 8 492 10 475 q 5 576 7 535 q 1 661 3 618 q 9 697 0 681 q 33 725 18 713 q 92 754 61 744 q 156 767 122 764 q 308 719 243 774 q 360 632 351 686 q 358 583 364 604 q 338 532 353 563 m 154 299 q 165 301 161 300 q 174 301 169 301 q 238 318 208 304 q 294 354 268 332 q 289 399 329 382 q 249 410 269 407 q 210 410 229 414 q 187 405 199 407 q 163 400 175 403 q 150 376 147 394 q 151 360 151 368 q 151 343 151 351 q 153 322 153 332 q 154 299 154 311 m 229 618 q 224 622 226 621 q 218 626 221 624 q 178 637 199 638 q 138 631 158 636 q 133 627 135 631 q 131 621 131 624 q 133 583 132 601 q 138 544 135 565 q 189 574 165 558 q 229 618 213 590 m 43 272 q 47 231 36 253 q 78 194 58 210 q 121 175 97 179 q 158 181 144 171 q 89 210 117 188 q 43 272 61 233 m 96 724 q 94 729 94 725 q 81 731 85 732 q 57 717 68 728 q 39 693 46 707 q 31 664 32 679 q 33 636 29 649 q 39 631 33 636 q 57 684 49 658 q 96 724 65 710 m 297 431 q 301 428 300 429 q 306 425 303 426 q 325 358 357 400 q 321 344 322 350 q 353 375 344 347 q 355 399 357 386 q 343 419 353 413 q 322 432 333 428 q 297 431 311 436 m 228 576 q 259 593 247 581 q 269 621 271 606 q 255 645 268 636 q 222 656 242 654 q 238 642 232 646 q 253 622 253 631 q 242 599 253 614 q 235 588 239 593 q 228 576 232 583 z "},"c":{"ha":417,"x_min":-4,"x_max":375,"o":"m 236 339 q 255 363 246 351 q 271 385 264 374 q 299 407 282 400 q 335 408 317 414 q 363 388 350 404 q 374 357 375 372 q 361 308 371 331 q 327 249 347 276 q 275 206 307 222 q 188 188 231 182 q 104 219 144 193 q 40 282 64 244 q 6 365 15 319 q 4 467 -4 418 q 32 564 13 515 q 114 682 58 631 q 233 728 167 729 q 322 696 285 726 q 368 619 358 665 q 369 582 371 600 q 351 549 367 564 q 326 535 340 538 q 297 535 311 532 q 273 549 283 539 q 258 574 263 558 q 255 582 257 578 q 250 586 253 586 q 238 583 244 585 q 229 578 232 582 q 217 547 222 563 q 207 515 211 531 q 199 460 200 488 q 203 404 199 432 q 214 371 207 388 q 236 339 221 354 m 176 221 q 179 225 176 222 q 99 288 131 249 q 44 375 68 328 q 42 369 43 371 q 42 367 42 368 q 43 360 42 361 q 104 257 60 299 q 127 240 115 247 q 151 225 139 232 q 163 222 157 222 q 176 221 169 222 m 185 381 q 181 467 179 425 q 197 549 182 508 q 174 514 182 538 q 163 464 165 490 q 166 414 161 438 q 185 381 171 390 m 207 699 q 178 699 196 704 q 144 681 161 693 q 116 651 128 668 q 104 618 104 633 q 151 664 125 644 q 207 699 176 683 m 275 610 q 271 608 274 608 q 272 588 268 597 q 282 572 275 579 q 298 559 289 564 q 318 557 307 554 q 323 559 321 557 q 324 563 325 561 q 318 569 324 567 q 301 582 310 576 q 286 594 293 588 q 275 610 279 601 m 329 308 q 350 335 343 307 q 350 364 354 350 q 339 381 346 378 q 334 344 336 363 q 329 308 332 326 z "},"d":{"ha":424,"x_min":-4,"x_max":382,"o":"m 382 496 q 365 390 379 440 q 314 299 350 340 q 255 247 288 268 q 185 214 222 226 q 147 204 165 207 q 107 206 128 201 q 38 267 54 218 q 21 328 28 294 q 17 351 18 339 q 15 374 15 363 l 15 592 q 14 622 15 607 q 6 653 13 638 q 6 697 -4 675 q 40 732 17 718 q 131 758 81 754 q 206 755 171 763 q 274 724 242 747 q 376 564 360 661 q 380 529 379 546 q 382 496 381 513 m 144 353 q 191 381 169 365 q 224 425 213 396 q 238 478 233 451 q 239 533 243 506 q 192 615 233 586 q 167 625 181 624 q 139 624 153 626 q 142 489 140 556 q 144 353 143 422 m 250 614 q 247 612 247 613 q 243 610 246 611 q 253 411 288 517 q 265 418 263 414 q 274 441 269 429 q 282 464 279 453 q 288 531 290 499 q 265 594 285 564 q 258 604 263 600 q 250 614 254 608 m 160 239 q 149 242 153 240 q 143 243 146 243 q 113 253 126 246 q 89 274 99 260 q 74 298 81 285 q 61 325 68 311 q 56 332 58 328 q 51 342 54 336 q 56 290 44 318 q 92 244 68 261 q 125 231 106 233 q 160 239 144 229 m 40 650 l 46 650 q 48 657 47 653 q 50 664 49 661 q 58 688 54 675 q 67 711 63 700 l 71 724 q 63 723 67 722 q 56 721 58 724 q 41 699 44 711 q 38 672 38 686 q 39 661 38 667 q 40 650 40 656 z "},"e":{"ha":444,"x_min":0,"x_max":403,"o":"m 146 175 q 105 172 125 174 q 64 172 85 171 q 22 187 40 172 q 1 229 3 201 q 10 263 0 249 q 39 285 21 278 q 114 306 74 299 q 178 317 146 313 q 242 325 210 322 q 295 326 269 328 q 347 322 321 325 q 387 297 371 319 q 401 250 403 274 q 379 204 399 224 q 335 182 360 185 q 240 177 288 179 q 146 172 193 175 l 146 175 m 374 264 q 372 270 372 267 q 369 278 372 274 q 365 283 368 281 q 360 289 363 286 q 357 283 358 286 q 356 276 356 279 q 351 247 356 261 q 333 222 346 233 q 330 217 331 219 q 328 211 329 214 q 340 208 336 208 q 374 264 374 219 m 83 193 q 78 198 79 196 q 74 201 76 200 q 43 250 47 221 q 38 260 40 256 q 34 255 36 257 q 31 250 32 253 q 46 197 24 222 q 63 190 53 190 q 83 193 72 190 m 296 753 q 326 750 311 753 q 354 738 340 747 q 385 679 388 715 q 342 624 382 638 q 306 615 324 618 q 269 610 289 613 q 226 602 247 606 q 182 597 204 599 q 134 592 158 596 q 86 586 110 589 q 38 599 57 582 q 14 644 18 615 q 19 677 11 658 q 44 704 28 696 q 90 724 67 717 q 139 733 114 731 q 194 742 167 738 q 249 749 221 746 q 272 751 260 751 q 296 753 285 751 m 83 608 q 63 638 72 624 q 43 668 53 653 q 44 632 31 656 q 60 611 51 617 q 83 608 69 606 m 315 642 q 322 640 318 640 q 351 664 339 643 q 357 700 363 685 q 354 703 356 701 q 350 704 353 706 q 344 699 344 704 q 317 646 340 667 q 316 644 315 646 q 315 642 317 643 m 14 421 q 49 479 14 465 q 153 500 99 497 q 258 513 207 504 q 287 510 272 515 q 313 497 301 506 q 332 474 325 488 q 339 447 339 461 q 324 408 338 424 q 282 388 311 393 q 242 382 263 383 q 201 378 221 381 q 163 374 182 375 q 125 371 144 372 q 72 375 99 371 q 55 378 64 376 q 38 385 46 381 q 19 402 25 392 q 14 421 14 413 m 301 483 q 296 442 303 460 q 275 408 289 424 q 311 433 301 406 q 315 461 317 447 q 301 483 313 475 m 53 458 q 41 438 43 450 q 44 414 39 425 q 82 393 56 389 q 59 422 68 407 q 53 458 50 438 z "},"f":{"ha":429,"x_min":0,"x_max":393,"o":"m 174 486 q 240 499 207 496 q 304 500 272 501 q 351 485 329 499 q 382 450 372 472 q 378 393 393 422 q 335 354 364 364 q 316 351 325 351 q 296 349 307 350 l 188 340 q 174 324 174 340 q 174 232 175 278 q 167 190 172 210 q 144 153 161 169 q 78 129 117 125 q 17 165 40 133 q 1 218 1 188 q 1 288 1 253 q 1 357 0 322 q 6 437 3 397 q 11 517 8 476 q 15 564 14 540 q 21 611 17 588 q 25 654 24 632 q 39 696 26 676 q 65 722 50 711 q 126 751 93 743 q 190 767 158 760 q 256 772 224 772 q 319 761 288 771 q 372 699 367 746 q 360 658 375 679 q 319 633 346 638 q 281 631 300 631 q 243 628 263 631 q 208 622 225 625 q 172 617 190 619 q 167 606 167 614 q 167 585 167 594 q 168 565 168 576 q 172 526 171 546 q 174 486 172 507 m 36 299 l 32 294 q 29 290 29 292 q 27 239 26 264 q 39 190 28 214 q 59 165 47 175 q 89 153 71 156 q 99 156 93 153 q 93 164 94 163 q 66 188 78 175 q 50 221 54 201 q 46 246 47 233 q 42 269 44 258 q 40 283 40 276 q 36 299 39 290 m 346 453 q 338 431 342 442 q 326 410 333 419 q 310 392 319 400 q 290 376 300 385 q 331 382 306 364 q 351 417 346 396 q 346 453 357 438 m 53 633 q 72 680 64 657 q 107 715 81 703 q 79 714 93 722 q 56 688 65 706 q 46 657 47 672 q 53 633 44 642 m 306 649 q 334 664 321 651 q 350 689 347 676 q 349 710 350 703 q 347 712 349 711 q 343 715 344 713 q 340 712 342 713 q 339 710 339 711 q 330 685 338 694 q 314 664 322 675 q 310 658 311 661 q 306 649 308 654 z "},"g":{"ha":440,"x_min":-3,"x_max":399,"o":"m 239 182 q 213 177 225 179 q 188 175 200 175 q 134 183 158 172 q 88 213 110 193 q 31 283 50 243 q 4 368 11 322 q 4 452 -3 411 q 26 533 11 493 q 121 675 58 615 q 324 717 208 757 q 360 691 347 708 q 378 650 372 674 q 376 625 381 638 q 361 603 371 613 q 338 589 351 593 q 313 589 325 585 q 261 590 281 599 q 226 553 242 582 q 202 496 211 525 q 190 435 193 467 q 193 347 186 394 q 194 343 193 344 q 212 317 203 318 q 240 332 221 315 q 256 355 253 343 q 261 381 260 367 q 264 412 264 396 q 265 443 264 428 q 269 472 267 458 q 279 497 271 485 q 338 524 300 531 q 383 481 374 517 q 387 458 386 469 q 389 436 388 447 q 394 380 392 408 q 397 324 396 351 q 399 243 399 283 q 396 163 399 203 q 373 112 394 131 q 321 92 351 93 q 273 106 293 90 q 243 153 253 121 l 239 182 m 185 206 q 186 209 186 208 q 188 213 186 210 q 180 217 183 215 q 174 219 176 218 q 93 285 117 239 q 72 330 82 307 q 53 375 63 353 q 48 388 50 382 q 43 401 46 394 q 40 400 40 400 q 39 389 38 394 q 89 257 43 318 q 147 214 114 226 q 166 210 157 211 q 185 206 175 208 m 121 619 l 126 619 q 131 623 129 622 q 133 626 132 624 q 166 656 149 643 q 203 681 183 669 q 213 686 208 683 q 224 692 218 689 q 226 696 226 694 q 229 700 226 697 q 219 703 221 703 q 194 692 207 697 q 171 681 182 688 q 125 633 140 667 q 122 627 122 631 q 121 619 122 624 m 279 194 q 277 193 278 193 q 275 192 276 193 l 271 183 q 285 140 268 161 q 325 117 303 118 q 338 119 332 117 q 349 129 344 121 q 303 150 321 135 q 279 194 286 165 m 292 433 q 306 466 299 450 q 322 500 314 482 q 306 497 311 503 q 296 485 300 492 q 286 456 288 471 q 292 433 285 440 m 347 651 q 335 636 343 640 q 315 629 326 632 q 300 625 308 629 q 297 622 297 624 q 293 619 296 621 q 300 614 299 614 q 324 613 313 611 q 343 625 335 615 q 347 651 358 638 z "},"w":{"ha":724,"x_min":0,"x_max":682,"o":"m 328 279 q 322 264 325 271 q 317 250 319 257 q 297 208 306 229 q 275 168 288 188 q 220 123 256 135 q 147 122 185 111 q 69 171 99 138 q 22 249 40 204 q 6 316 10 282 q 1 386 1 350 q 4 456 0 422 q 19 524 8 490 q 38 556 26 542 q 68 578 49 571 q 119 574 93 588 q 154 533 146 561 q 171 476 164 506 q 185 417 178 446 q 194 369 190 393 q 201 321 197 344 q 203 314 201 318 q 206 303 204 310 q 215 322 214 314 q 231 368 224 346 q 246 414 238 390 q 274 485 260 450 q 306 553 288 519 q 327 576 314 568 q 355 585 340 583 q 383 579 369 586 q 407 558 397 572 q 453 469 436 517 q 474 396 465 433 q 493 321 483 358 q 500 299 496 310 q 508 276 504 288 q 511 275 511 275 q 519 293 515 285 q 526 313 524 301 q 541 381 533 347 q 554 451 549 415 q 558 503 557 478 q 563 556 560 529 q 567 601 565 579 q 571 647 568 624 q 578 665 572 657 q 592 681 583 674 q 610 691 600 688 q 628 693 619 694 q 667 673 653 690 q 682 636 682 656 q 680 555 681 596 q 676 474 679 514 q 643 269 669 369 q 615 195 632 231 q 571 129 599 160 q 516 95 546 101 q 453 97 486 89 q 389 132 414 107 q 351 194 364 157 q 340 235 344 214 q 328 279 335 256 m 393 217 q 389 215 392 215 q 390 197 389 203 q 406 167 394 182 q 432 142 417 153 q 464 126 447 132 q 496 124 481 121 q 503 126 500 124 q 510 132 507 129 q 503 138 507 135 q 497 142 500 140 q 442 162 465 144 q 403 204 419 179 q 398 210 400 207 q 393 217 396 214 m 71 247 q 69 246 69 246 q 67 244 68 246 q 68 238 68 242 q 69 231 68 233 q 115 165 82 190 q 142 150 128 156 q 172 146 156 144 q 178 148 175 146 q 183 151 181 150 q 179 158 181 154 q 175 161 178 161 q 120 189 142 168 q 79 236 99 210 q 75 242 76 239 q 71 247 74 244 m 38 464 l 43 464 q 47 477 46 471 q 51 490 49 483 q 66 524 58 508 q 92 550 74 540 q 97 558 97 553 q 93 562 96 560 q 89 563 90 564 q 75 558 82 560 q 63 551 68 557 q 33 485 36 528 q 34 474 32 479 q 38 464 36 469 m 308 508 q 310 506 308 507 q 313 501 311 504 q 321 507 315 504 q 336 529 328 518 q 353 551 344 540 q 356 556 354 554 q 358 561 357 558 q 352 564 356 563 q 346 564 349 565 q 320 543 332 561 q 308 508 308 525 m 635 672 q 634 675 635 674 q 633 678 633 676 q 622 676 628 676 q 613 672 617 675 q 596 650 600 663 q 592 622 592 638 q 594 617 592 619 q 597 611 596 614 q 606 621 604 618 q 610 637 608 628 q 617 653 613 646 q 624 663 619 658 q 635 672 629 667 z "},"x":{"ha":554,"x_min":-1,"x_max":518,"o":"m 240 565 q 267 610 254 589 q 293 651 279 631 q 342 729 317 690 q 400 801 368 768 q 431 822 414 815 q 468 824 447 829 q 509 783 500 814 q 499 724 518 753 q 467 679 483 700 q 436 635 451 658 q 385 551 410 593 q 333 468 360 510 q 331 458 331 461 q 335 450 332 456 q 403 358 371 406 q 463 258 435 310 q 468 200 478 231 q 426 156 458 169 q 384 151 407 147 q 346 172 361 156 q 295 229 319 200 q 246 286 271 258 q 235 299 239 293 q 216 267 225 282 q 197 238 207 253 q 165 183 181 210 q 131 132 149 157 q 88 85 111 104 q 51 74 72 72 q 17 90 31 76 q 0 124 1 104 q 10 161 -1 144 q 40 213 25 188 q 71 265 56 239 q 107 331 90 297 q 143 396 124 364 q 142 425 153 411 q 122 452 131 438 q 106 481 114 467 q 75 533 90 507 q 44 586 60 558 q 38 613 38 599 q 44 638 38 626 q 63 658 50 650 q 92 668 75 667 q 115 665 103 669 q 136 653 126 660 q 163 636 150 646 q 186 615 175 626 q 213 592 200 604 q 240 565 225 579 m 329 250 q 326 247 329 250 q 328 241 328 244 q 329 235 328 238 q 350 213 340 224 q 371 190 360 201 q 418 181 389 176 q 433 197 432 183 q 428 199 431 197 q 424 199 426 200 q 392 204 406 197 q 365 222 378 211 q 353 233 358 228 q 342 243 349 238 q 335 247 339 246 q 329 250 332 247 m 51 182 q 44 178 47 181 q 26 137 25 164 q 47 97 28 110 q 53 97 50 96 q 60 97 57 97 q 58 104 58 100 q 57 111 58 108 q 50 122 54 117 q 46 132 46 126 q 48 151 46 142 q 51 168 50 160 q 52 174 53 171 q 51 182 51 178 m 93 560 q 90 573 90 567 q 86 585 89 579 q 90 633 79 613 q 93 646 93 638 q 87 645 90 644 q 81 643 83 646 q 65 618 69 636 q 68 583 61 600 q 75 569 71 576 q 93 560 79 563 m 472 803 q 460 806 465 804 q 453 807 456 808 q 400 774 421 803 q 394 763 397 769 q 393 754 392 756 q 405 753 400 749 q 414 761 410 757 q 436 781 425 772 q 463 796 447 790 q 467 798 465 796 q 472 803 468 800 z "},"y":{"ha":503,"x_min":-1,"x_max":461,"o":"m 222 -79 q 208 -69 215 -74 q 193 -58 200 -65 q 180 -17 178 -43 q 204 22 182 8 q 244 61 231 38 q 265 113 258 85 q 280 180 274 146 q 293 249 286 214 q 292 254 293 251 q 283 244 288 249 q 275 235 279 239 q 242 201 260 217 q 200 176 224 185 q 133 172 164 164 q 74 204 101 181 q 26 266 42 232 q 7 340 11 300 q 1 397 4 368 q 1 453 -1 425 q 8 529 4 492 q 28 603 13 567 q 89 656 46 650 q 128 645 108 658 q 157 608 149 632 q 165 568 163 590 q 171 514 168 540 q 176 460 174 488 q 181 410 178 435 q 192 361 185 385 l 197 344 q 221 382 211 364 q 276 506 254 442 q 319 635 297 569 q 326 657 322 646 q 335 676 329 668 q 361 697 346 693 q 394 699 376 701 q 439 656 431 690 q 453 591 447 624 q 458 525 458 558 q 460 489 458 507 q 461 453 461 471 q 406 118 461 279 q 318 -33 375 32 q 290 -54 307 -46 q 258 -74 274 -62 q 253 -76 256 -75 q 247 -79 250 -78 l 222 -79 m 158 199 q 165 201 161 200 q 171 204 168 203 q 160 214 164 211 q 140 224 146 219 q 97 258 114 238 q 64 304 79 279 q 60 308 63 307 q 54 311 57 308 q 53 306 54 308 q 53 300 51 303 q 69 269 61 285 q 88 239 76 253 q 158 199 111 207 m 53 544 q 58 563 56 556 q 63 578 60 571 q 73 599 67 589 q 90 615 79 608 q 96 620 93 617 q 101 626 99 624 q 92 628 96 626 q 83 628 88 629 q 65 617 74 625 q 51 598 57 608 q 44 576 46 588 q 46 554 43 564 q 53 544 46 556 m 339 619 q 343 610 342 614 q 353 617 351 615 q 356 621 356 617 q 394 668 365 651 q 399 675 399 672 q 392 681 396 681 q 378 676 383 681 q 339 619 346 661 m 249 -58 q 257 -52 253 -56 q 267 -46 261 -49 q 258 -41 263 -43 q 250 -37 254 -39 q 217 -15 231 -33 q 213 -12 214 -14 q 208 -10 211 -11 q 206 -15 207 -12 q 206 -21 204 -18 q 220 -45 207 -35 q 249 -58 233 -56 z "},"z":{"ha":435,"x_min":-7,"x_max":396,"o":"m 215 361 q 236 362 226 361 q 257 361 246 363 q 307 356 282 358 q 356 346 332 353 q 385 322 375 342 q 392 282 396 303 q 370 247 386 260 q 332 235 354 233 q 217 235 274 238 q 101 221 160 232 q 51 226 75 215 q 4 276 15 240 q 15 344 -7 311 q 70 422 40 385 q 132 494 100 458 q 165 530 149 513 q 199 567 182 547 q 203 572 201 569 q 208 579 206 575 q 174 580 190 579 q 143 578 158 581 q 108 573 125 576 q 72 567 90 569 q 27 576 47 563 q 3 617 7 590 q 12 655 0 636 q 46 681 24 674 q 99 692 72 688 q 151 699 125 696 q 222 702 188 701 q 292 696 257 703 q 322 688 307 693 q 349 675 338 683 q 382 628 376 657 q 371 571 388 599 q 347 536 360 553 q 322 503 335 519 q 272 441 297 471 q 222 379 247 411 l 214 367 q 215 361 215 365 m 257 585 q 250 600 257 594 q 236 603 243 606 q 232 596 235 603 q 238 583 243 589 q 229 572 233 578 q 215 554 222 563 q 201 538 208 546 q 201 531 200 535 q 200 524 201 526 q 206 525 203 525 q 213 528 210 525 q 232 550 222 539 q 251 572 242 561 q 255 578 254 575 q 257 585 256 582 m 83 243 q 94 249 89 247 q 92 254 92 251 q 89 258 92 257 q 60 283 72 269 q 43 317 47 297 q 38 322 40 322 q 32 317 35 322 q 31 307 31 314 q 68 249 36 269 q 75 246 71 246 q 83 243 79 246 m 43 651 l 39 651 q 31 640 36 649 q 33 612 26 626 q 51 590 39 597 q 58 588 54 588 q 65 589 61 589 q 63 595 63 592 q 60 601 63 599 q 44 639 44 619 q 44 645 44 642 q 43 651 43 649 m 356 321 q 350 307 353 313 q 342 292 346 300 q 333 276 338 283 q 330 270 331 274 q 326 263 329 267 q 335 262 331 263 q 344 263 340 261 q 363 287 356 268 q 356 321 369 306 z "},"D":{"ha":699,"x_min":0,"x_max":660,"o":"m 190 188 q 202 188 197 189 q 213 189 207 188 q 417 310 333 221 q 489 501 492 390 q 465 615 486 563 q 399 707 443 667 q 315 769 360 743 q 215 804 269 796 q 201 807 207 807 q 161 854 161 818 q 197 904 158 890 q 239 913 218 911 q 281 913 260 915 q 414 874 351 901 q 528 796 476 846 q 643 588 618 710 q 654 436 660 510 q 613 292 649 363 q 540 192 583 235 q 444 115 497 149 q 315 53 382 75 q 174 24 247 31 q 143 23 158 22 q 113 25 128 24 q 41 57 68 29 q 10 125 14 85 q 3 195 4 160 q 0 267 1 231 q 1 335 0 301 q 4 404 3 369 q 7 535 7 471 q 10 667 7 600 q 14 755 11 711 q 19 843 17 799 q 38 879 22 867 q 75 889 53 892 q 117 847 106 885 q 133 768 128 808 q 144 688 139 728 q 155 598 150 643 q 163 508 160 553 q 174 363 169 435 q 185 217 179 290 q 187 203 186 210 q 190 188 188 196 m 31 154 q 38 107 29 129 q 67 69 47 85 q 156 51 103 39 q 115 63 131 60 q 86 75 99 67 q 61 101 74 83 q 31 154 49 118 m 42 803 q 49 824 46 814 q 57 843 51 835 q 71 855 63 850 q 88 867 79 860 q 68 873 76 874 q 51 864 60 872 q 42 803 26 842 m 240 824 q 221 834 229 831 q 206 844 213 838 q 195 860 199 851 q 186 879 192 869 q 188 840 174 861 q 240 824 201 815 z "},"!":{"ha":200,"x_min":0,"x_max":160,"o":"m 0 101 q 8 112 4 107 q 14 122 11 117 q 75 160 33 160 q 138 125 118 160 q 142 76 150 101 q 108 36 133 51 q 60 28 85 22 q 19 56 35 35 q 10 70 14 63 q 0 85 6 78 l 0 101 m 49 132 q 28 106 28 131 q 36 78 28 89 q 57 68 44 68 q 53 99 54 83 q 49 132 51 115 m 15 285 q 12 349 14 317 q 10 415 10 382 q 13 505 11 460 q 17 594 14 550 q 19 665 18 631 q 24 736 21 700 q 36 881 28 810 q 50 910 39 900 q 78 921 61 921 q 121 883 114 921 q 131 817 126 850 q 138 751 135 785 q 150 496 146 625 q 153 429 153 463 q 154 363 153 396 q 155 326 154 344 q 157 290 156 308 q 141 229 160 253 q 89 203 122 206 q 34 225 56 201 q 15 285 13 249 m 101 235 q 81 255 90 246 q 64 275 71 264 q 53 298 57 286 q 44 324 50 310 q 51 254 25 289 q 71 235 60 243 q 101 235 82 228 m 89 901 q 72 901 78 906 q 61 890 65 897 q 56 876 57 883 q 63 858 54 868 q 76 880 69 869 q 89 901 82 890 z "},"\"":{"ha":329,"x_min":-7,"x_max":289,"o":"m 63 814 q 48 819 53 817 q 38 824 43 821 q 3 896 -7 844 q 61 951 10 949 q 115 926 94 953 q 130 885 128 908 q 126 840 132 863 q 108 799 121 818 q 81 771 96 781 q 14 767 47 750 q 4 774 8 769 q 1 783 0 779 q 6 791 1 788 q 17 797 11 794 q 26 799 21 800 q 35 800 31 799 q 47 806 42 803 q 63 814 53 810 m 33 919 q 19 865 4 896 q 29 852 24 858 q 46 850 35 846 q 40 884 43 868 q 33 919 36 900 m 50 779 q 36 783 43 782 q 22 775 29 783 q 37 768 31 768 q 50 779 43 768 m 219 814 q 205 819 210 817 q 194 824 200 821 q 160 896 150 844 q 218 951 167 949 q 272 926 251 953 q 287 885 285 908 q 283 840 289 863 q 265 799 278 818 q 238 771 253 781 q 171 767 204 750 q 161 774 165 769 q 158 783 157 779 q 163 791 158 788 q 174 797 168 794 q 183 799 178 800 q 192 800 188 799 q 204 806 199 803 q 219 814 210 810 m 190 919 q 176 865 161 896 q 186 852 181 858 q 203 850 192 846 q 197 884 200 868 q 190 919 193 900 m 207 779 q 193 783 200 782 q 179 775 186 783 q 194 768 188 768 q 207 779 200 768 z "},"'":{"ha":172,"x_min":-7,"x_max":132,"o":"m 63 814 q 48 819 53 817 q 38 824 43 821 q 3 896 -7 844 q 61 951 10 949 q 115 926 94 953 q 130 885 128 908 q 126 840 132 863 q 108 799 121 818 q 81 771 96 781 q 14 767 47 750 q 4 774 8 769 q 1 783 0 779 q 6 791 1 788 q 17 797 11 794 q 26 799 21 800 q 35 800 31 799 q 47 806 42 803 q 63 814 53 810 m 33 919 q 19 865 4 896 q 29 852 24 858 q 46 850 35 846 q 40 884 43 868 q 33 919 36 900 m 50 779 q 36 783 43 782 q 22 775 29 783 q 37 768 31 768 q 50 779 43 768 z "},"#":{"ha":607,"x_min":-4,"x_max":565,"o":"m 465 274 q 464 254 464 263 q 463 236 464 246 q 461 209 461 222 q 458 182 461 196 q 435 135 454 153 q 389 117 415 118 q 342 129 361 115 q 317 169 324 143 q 313 196 314 182 q 313 224 313 210 q 312 247 311 235 q 313 274 313 258 q 281 274 296 274 q 251 276 267 275 q 247 246 250 260 q 226 182 246 211 q 199 156 215 164 q 167 148 183 147 q 135 158 150 149 q 110 185 119 167 q 90 254 90 219 q 91 268 92 261 q 89 282 90 275 q 71 283 79 283 q 54 285 63 283 q 23 293 36 286 q 3 318 10 300 q 6 359 -4 340 q 40 382 17 378 q 65 385 53 385 q 93 389 78 386 q 104 461 101 425 q 111 535 107 497 q 97 537 103 536 q 83 538 90 538 q 72 538 78 538 q 60 539 67 538 q 31 553 42 542 q 19 582 19 565 q 31 611 19 599 q 60 626 42 624 q 88 629 74 629 q 117 632 101 629 q 119 647 118 639 q 119 663 119 656 q 121 713 121 688 q 122 761 121 738 q 127 785 124 774 q 139 804 131 796 q 186 819 158 826 q 224 781 219 811 q 231 726 228 753 q 238 671 235 699 q 240 657 239 664 q 242 643 240 650 l 314 643 q 325 649 322 643 q 329 661 328 654 q 331 704 331 683 q 335 747 332 725 q 341 806 338 776 q 347 864 344 835 q 348 872 347 868 q 350 879 349 875 q 369 906 357 896 q 397 914 381 915 q 424 904 413 914 q 439 878 436 894 q 448 830 444 854 q 454 781 451 806 q 459 716 457 749 q 464 649 461 683 q 481 647 472 647 q 496 644 489 646 q 538 627 522 643 q 554 588 554 611 q 537 546 554 563 q 493 529 519 529 q 469 524 474 528 q 464 501 465 521 l 464 401 l 500 401 q 532 393 518 401 q 554 372 546 385 q 564 344 563 360 q 558 311 565 328 q 499 274 542 274 l 465 274 m 250 397 l 293 397 q 313 418 313 397 q 315 459 314 439 q 315 499 315 479 q 315 511 315 506 q 314 524 315 517 q 250 526 281 531 l 250 397 m 340 240 q 331 210 332 226 q 333 181 329 194 q 346 156 338 167 q 367 142 354 146 q 376 142 371 140 q 388 143 381 143 q 369 165 376 156 q 356 186 361 175 q 347 210 349 197 q 340 240 344 224 m 164 181 q 150 201 157 192 q 138 222 143 211 q 129 242 132 232 q 124 264 126 253 q 119 263 121 264 q 115 263 118 263 q 110 234 106 247 q 121 207 114 221 q 138 183 129 189 q 164 181 146 178 m 178 807 q 151 794 158 804 q 140 774 144 785 q 136 752 136 763 q 146 729 136 742 q 162 768 154 750 q 178 807 169 786 m 140 513 q 126 465 128 493 q 132 424 124 438 q 145 468 143 439 q 140 513 147 497 m 399 893 q 376 885 383 893 q 365 867 369 878 q 360 844 361 856 q 369 819 358 833 q 384 856 376 839 q 399 893 392 874 m 347 507 q 337 469 339 488 q 346 432 335 451 q 357 469 356 451 q 347 507 358 488 m 60 300 q 44 328 51 315 q 28 357 36 342 q 24 320 15 336 q 60 300 32 304 m 525 607 q 506 582 514 593 q 488 560 497 571 q 525 607 535 556 m 528 351 q 508 330 518 339 q 492 306 499 321 q 524 315 511 299 q 533 331 529 322 q 528 351 536 339 m 53 611 q 41 592 42 600 q 44 574 40 583 q 52 563 47 567 q 68 561 57 558 q 62 584 65 572 q 53 611 58 596 z "},"$":{"ha":672,"x_min":-7,"x_max":632,"o":"m 367 117 q 365 75 365 94 q 361 36 364 56 q 353 6 358 19 q 303 -25 338 -28 q 258 10 267 -22 q 254 37 256 24 q 251 64 253 50 q 250 83 250 74 q 249 103 250 92 q 232 106 240 106 q 215 108 224 107 q 194 113 204 111 q 172 117 183 114 q 78 177 110 132 q 39 276 46 222 q 65 333 32 315 q 108 340 85 346 q 142 313 131 335 q 158 294 149 300 q 182 286 168 289 q 308 282 249 271 q 426 324 368 293 q 448 338 438 329 q 465 357 458 347 q 473 396 481 376 q 442 418 465 415 q 396 423 418 422 q 350 424 374 424 q 258 424 304 425 q 165 424 211 422 q 136 426 150 424 q 108 433 122 429 q 22 496 50 450 q 4 604 -7 542 q 149 817 29 742 q 194 841 171 831 q 240 863 217 851 q 257 889 258 869 q 258 936 254 915 q 301 979 263 976 q 351 940 343 982 q 354 927 354 933 q 356 914 354 921 q 360 890 357 894 q 383 883 364 886 q 500 846 446 876 q 533 822 518 835 q 557 789 547 808 q 565 751 565 772 q 543 714 568 724 q 496 717 519 701 q 489 724 492 719 q 401 769 447 764 q 304 751 354 774 q 264 731 283 743 q 225 706 244 718 q 158 603 174 668 q 156 578 153 583 q 179 572 160 572 q 239 572 210 571 q 297 575 268 572 q 378 578 338 578 q 461 574 419 579 q 581 510 535 564 q 629 381 626 456 q 602 269 632 315 q 522 186 572 222 q 454 147 490 163 q 381 121 418 132 q 367 117 372 118 m 132 461 q 111 479 121 471 q 90 499 101 488 q 74 520 82 510 q 58 542 65 531 q 48 568 51 554 q 39 597 44 582 q 31 554 28 576 q 50 510 35 532 q 90 469 69 482 q 132 461 111 456 m 468 453 q 472 446 471 449 q 474 440 472 443 q 482 356 511 401 q 478 344 479 350 q 474 332 476 339 q 505 352 493 335 q 517 393 517 369 q 468 453 514 446 m 78 314 q 59 301 63 307 q 57 278 56 294 q 64 242 58 258 q 89 215 69 226 q 86 240 89 228 q 81 263 83 251 q 78 288 78 275 q 78 314 79 300 m 313 -1 q 302 18 307 10 q 292 35 297 26 q 287 56 286 44 q 276 75 288 67 q 268 42 265 57 q 279 11 271 26 q 292 -1 285 3 q 313 -1 300 -6 m 281 901 q 294 932 288 918 q 307 961 300 946 q 276 942 283 958 q 281 901 269 926 m 531 732 q 505 753 518 744 q 482 760 492 761 q 502 728 489 736 q 531 732 515 721 z "},"%":{"ha":540,"x_min":0,"x_max":499,"o":"m 31 79 q 36 116 33 97 q 46 151 39 135 q 77 235 61 193 q 111 317 93 276 q 178 463 144 390 q 247 608 213 535 q 314 752 281 681 q 382 896 347 824 q 397 925 389 911 q 415 953 406 939 q 465 971 436 982 q 488 953 481 965 q 492 922 494 940 q 476 853 485 888 q 456 786 468 819 q 397 633 428 708 q 336 479 367 557 q 297 378 317 429 q 257 278 278 328 q 203 156 231 217 q 150 35 176 96 q 129 4 142 15 q 96 -6 117 -7 q 38 39 53 -3 q 34 58 35 49 q 31 79 33 68 m 99 15 q 86 42 92 31 q 76 67 81 54 q 74 92 72 78 q 65 119 76 106 q 53 81 54 100 q 60 43 53 63 q 73 24 64 32 q 99 15 82 15 m 454 957 q 444 953 449 954 q 436 950 439 953 q 390 879 400 921 q 390 873 389 876 q 392 865 392 869 q 408 883 397 871 q 428 910 418 896 q 445 938 438 925 q 454 957 453 951 m 276 131 q 287 189 276 163 q 315 240 297 215 q 396 276 343 281 q 476 235 456 269 q 499 160 497 201 q 476 63 499 107 q 431 14 461 32 q 371 3 400 -4 q 309 31 331 11 q 279 92 288 51 q 277 112 276 103 q 276 131 278 121 m 374 133 q 376 118 375 126 q 381 101 378 110 q 400 99 388 82 q 414 168 418 131 q 407 179 413 176 q 394 181 401 182 q 379 169 385 181 q 376 153 376 163 q 374 133 375 144 m 319 208 q 317 209 318 208 q 313 210 315 210 q 293 178 296 197 q 289 142 290 160 q 292 99 288 119 q 314 61 297 78 q 311 99 314 81 q 310 135 308 117 q 313 172 310 154 q 319 208 317 189 m 443 186 q 438 165 440 178 q 433 138 435 151 q 432 113 432 125 q 433 96 432 101 q 453 127 449 111 q 457 161 457 143 q 456 176 457 168 q 443 186 454 183 m 392 18 q 356 36 376 40 q 367 17 361 19 q 392 18 372 14 m 343 244 q 382 261 367 240 q 360 265 367 268 q 343 244 354 263 m 0 815 q 10 874 0 847 q 39 925 21 900 q 119 961 67 965 q 200 920 179 954 q 222 844 221 886 q 200 747 222 792 q 154 699 185 717 q 94 688 124 681 q 33 716 54 696 q 3 776 11 736 q 1 797 0 788 q 0 815 1 806 m 97 818 q 100 803 99 811 q 104 786 101 794 q 124 783 111 767 q 138 853 142 815 q 131 864 136 861 q 118 865 125 867 q 103 854 108 865 q 99 838 100 847 q 97 818 99 829 m 43 893 q 40 894 42 893 q 36 894 39 894 q 17 863 19 882 q 13 826 14 844 q 16 783 11 804 q 38 746 21 763 q 35 783 38 765 q 33 819 32 801 q 37 856 33 839 q 43 893 40 874 m 167 871 q 161 849 164 863 q 157 823 158 836 q 156 798 156 810 q 157 781 156 786 q 176 812 172 796 q 181 846 181 828 q 179 860 181 853 q 167 871 178 868 m 115 703 q 79 721 100 725 q 90 701 85 704 q 115 703 96 699 m 67 929 q 106 946 90 925 q 84 950 90 953 q 67 929 78 947 z "},"&":{"ha":560,"x_min":0,"x_max":519,"o":"m 372 176 q 344 151 357 163 q 319 128 332 139 q 283 99 301 113 q 246 74 265 85 q 182 55 215 57 q 119 63 149 53 q 63 96 89 74 q 22 150 38 118 q 1 233 1 190 q 11 318 0 275 q 31 377 18 350 q 64 431 44 404 q 75 447 69 439 q 88 463 81 456 q 93 507 104 482 q 65 582 75 546 q 67 687 51 639 q 119 778 82 735 q 187 828 149 811 q 269 849 225 846 q 323 842 297 851 q 368 816 349 833 q 399 773 388 799 q 414 717 411 747 q 388 590 418 647 q 350 529 369 558 q 311 469 331 500 q 297 448 304 458 q 281 426 289 438 q 313 389 297 407 q 347 351 329 371 q 367 372 358 363 q 383 392 375 382 q 397 410 390 400 q 413 428 404 419 q 442 446 425 443 q 474 439 458 449 q 495 415 489 431 q 494 381 501 399 q 484 356 490 368 q 471 333 478 344 q 451 300 461 317 q 429 265 440 283 q 444 247 436 256 q 460 231 453 239 q 485 198 472 214 q 508 165 497 182 q 516 131 519 147 q 497 103 513 114 q 435 114 467 82 q 403 146 419 131 q 372 176 388 161 m 181 582 q 189 588 186 586 q 193 592 192 589 q 223 628 208 610 q 253 664 238 646 q 265 684 260 674 q 275 706 271 694 q 281 725 279 715 q 275 746 282 735 q 183 697 214 746 q 165 642 165 669 q 181 582 165 614 m 211 328 q 181 257 185 297 q 182 224 178 239 q 203 211 183 204 q 219 220 208 213 q 240 237 229 228 q 258 256 250 246 q 271 275 267 267 q 242 300 257 288 q 211 328 226 313 m 47 199 q 44 188 46 192 q 44 179 43 183 q 60 143 47 161 q 90 110 72 125 q 127 88 107 96 q 165 79 147 79 q 178 81 172 79 q 190 94 185 83 q 160 102 175 99 q 133 113 146 106 q 108 128 119 119 q 86 149 97 138 q 67 172 75 160 q 47 199 58 183 m 96 601 q 98 623 97 614 q 100 640 99 632 q 102 655 101 647 q 104 671 103 663 q 108 687 106 679 q 113 703 110 694 q 119 717 114 710 q 118 735 124 725 q 95 708 104 725 q 83 672 86 692 q 82 634 79 653 q 96 601 85 615 m 271 640 q 300 674 290 657 q 317 711 310 692 q 319 747 322 725 q 317 759 319 754 q 306 765 315 764 q 299 735 303 750 q 292 706 296 721 q 278 676 288 690 q 271 640 269 663 m 431 164 q 436 135 429 147 q 457 118 443 122 q 474 115 465 115 q 489 125 482 114 q 460 144 474 135 q 431 164 446 154 m 288 301 q 269 339 285 321 q 239 356 254 357 q 257 319 244 333 q 288 301 269 304 m 468 421 q 464 390 464 400 q 469 369 464 381 q 468 421 497 401 z "},"(":{"ha":386,"x_min":0,"x_max":344,"o":"m 285 -168 q 278 -163 282 -165 q 271 -160 275 -161 q 175 -101 215 -139 q 104 -12 135 -62 q 47 106 71 46 q 11 232 22 165 q 1 335 3 285 q 1 439 0 386 q 13 555 4 497 q 36 671 21 613 q 78 801 53 738 q 147 918 104 864 q 188 963 167 942 q 231 1006 208 985 q 250 1020 239 1014 q 272 1032 261 1026 q 302 1035 288 1039 q 325 1018 317 1031 q 333 991 333 1006 q 319 965 332 976 q 258 894 283 932 q 215 813 232 856 q 185 726 197 771 q 163 636 172 682 q 146 458 143 547 q 165 281 149 369 q 207 103 182 189 q 243 21 219 58 q 294 -53 267 -17 q 306 -65 300 -60 q 319 -76 313 -71 q 344 -120 344 -97 q 317 -162 344 -143 q 314 -165 315 -164 q 311 -168 313 -165 l 285 -168 m 51 292 q 52 304 51 299 q 53 317 53 310 q 52 353 53 336 q 51 390 51 371 q 52 456 51 422 q 53 522 53 489 q 53 535 53 529 q 46 549 53 542 q 34 494 38 532 q 31 416 31 457 q 37 340 32 375 q 51 292 42 304 m 275 1004 q 238 988 253 1001 q 210 961 224 975 q 188 933 199 947 q 175 900 176 919 q 185 901 183 900 q 228 951 206 926 q 276 996 250 975 q 276 999 276 997 q 275 1004 275 1000 m 217 -78 q 213 -83 215 -81 q 232 -110 219 -100 q 260 -128 244 -119 q 277 -135 268 -132 q 300 -129 286 -137 q 256 -103 276 -115 q 217 -78 236 -90 z "},")":{"ha":386,"x_min":0,"x_max":344,"o":"m 60 -168 l 33 -168 q 31 -165 32 -165 q 28 -162 29 -164 q 0 -120 0 -143 q 25 -76 0 -97 q 38 -65 32 -71 q 50 -53 44 -60 q 101 21 78 -17 q 138 103 125 58 q 179 281 163 189 q 199 458 196 369 q 182 636 201 547 q 130 813 163 728 q 25 965 97 899 q 12 991 13 976 q 19 1018 11 1006 q 42 1035 28 1031 q 72 1032 57 1039 q 94 1020 83 1026 q 114 1006 106 1014 q 157 963 136 985 q 197 918 178 942 q 266 801 240 864 q 308 671 292 738 q 332 555 324 613 q 343 439 340 497 q 343 335 344 386 q 333 232 342 285 q 298 106 322 165 q 240 -12 274 46 q 169 -101 210 -62 q 74 -160 129 -139 q 66 -163 69 -161 q 60 -168 63 -165 m 293 292 q 308 340 303 304 q 313 416 313 375 q 310 494 314 457 q 299 549 307 532 q 292 535 292 542 q 292 522 292 529 q 292 456 292 489 q 293 390 293 422 q 292 353 293 371 q 292 317 292 336 q 292 304 292 310 q 293 292 293 299 m 69 1004 q 69 999 69 1000 q 68 996 68 997 q 117 951 94 975 q 160 901 139 926 q 169 900 161 900 q 157 933 168 919 q 135 961 146 947 q 106 988 121 975 q 69 1004 92 1001 m 128 -78 q 88 -103 108 -90 q 44 -129 68 -115 q 67 -135 58 -137 q 85 -128 76 -132 q 113 -110 100 -119 q 132 -83 125 -100 q 128 -78 129 -81 z "},"*":{"ha":368,"x_min":-7,"x_max":326,"o":"m 293 829 q 300 817 296 824 q 307 806 304 811 q 316 789 313 799 q 319 772 319 779 q 315 755 319 764 q 303 740 310 746 q 284 738 296 736 q 267 744 272 739 q 256 752 261 747 q 247 761 251 757 q 242 753 244 757 q 236 747 239 750 q 177 713 211 715 q 115 740 143 711 q 105 751 110 746 q 94 764 100 757 q 78 746 85 754 q 64 731 71 738 q 18 721 43 707 q 4 768 -7 738 q 10 779 4 776 q 26 803 18 790 q 42 828 33 815 q 35 835 39 831 q 28 843 32 840 q 17 869 19 856 q 28 899 15 883 q 52 908 39 907 q 81 896 65 908 q 89 889 88 890 q 105 909 96 900 q 121 926 114 918 q 178 954 149 957 q 232 919 207 951 q 238 909 235 914 q 247 899 242 904 q 253 905 250 901 q 260 913 257 908 q 288 928 272 925 q 314 919 303 931 q 326 895 326 908 q 317 867 325 882 q 305 849 311 858 q 293 829 299 839 m 47 883 q 37 865 36 869 q 51 849 38 861 q 56 867 57 863 q 47 883 56 871 m 35 740 q 44 760 42 751 q 35 782 47 769 q 17 759 17 764 q 35 740 17 754 m 176 858 q 166 845 171 851 q 156 832 161 839 q 164 825 158 829 q 175 815 169 821 q 184 826 181 821 q 193 835 188 831 q 185 846 190 840 q 176 858 181 851 m 118 789 q 137 739 118 753 q 199 738 156 725 q 156 764 175 751 q 118 789 138 776 m 296 758 q 301 769 297 764 q 307 779 304 774 q 296 785 304 779 q 290 774 293 779 q 286 764 288 769 q 292 760 286 763 q 296 758 294 758 z "},"+":{"ha":364,"x_min":-1,"x_max":324,"o":"m 218 436 l 247 432 q 258 431 253 431 q 271 429 264 431 q 310 403 296 422 q 321 360 324 383 q 297 324 317 338 q 253 313 278 310 q 236 314 244 313 q 217 317 228 315 q 216 288 215 301 q 215 263 217 275 q 210 231 213 247 q 204 200 208 215 q 172 168 199 178 q 136 172 153 161 q 117 204 119 183 q 114 248 114 226 q 114 292 114 269 q 113 301 113 297 q 114 313 114 306 q 97 312 104 313 q 82 310 89 311 q 67 307 75 308 q 53 304 60 306 q 6 329 19 301 q 1 360 -1 344 q 17 388 4 376 q 42 401 29 396 q 71 413 56 407 q 91 418 81 417 q 113 422 101 419 q 115 440 114 432 q 115 458 115 449 q 117 490 117 474 q 118 524 117 507 q 139 558 121 546 q 183 563 160 574 q 210 525 206 553 q 213 491 213 508 q 215 456 214 474 q 216 447 215 451 q 218 436 217 443 m 163 192 q 136 253 149 221 q 125 231 125 242 q 129 208 125 219 q 163 192 139 186 m 68 324 q 47 346 57 335 q 25 368 36 357 q 22 339 11 357 q 68 324 36 313 m 251 333 q 289 343 278 331 q 293 375 300 356 l 251 333 m 174 547 q 158 551 164 554 q 146 542 151 549 q 138 526 139 535 q 146 506 138 517 q 160 526 153 517 q 174 547 167 536 z "},"-":{"ha":378,"x_min":0,"x_max":336,"o":"m 221 317 q 144 319 182 318 q 68 324 107 321 q 52 324 60 324 q 36 326 44 325 q 0 367 0 333 q 36 407 0 400 q 63 410 50 410 q 90 413 76 411 q 151 415 121 414 q 210 417 181 417 q 251 416 231 417 q 293 414 272 415 q 324 398 313 411 q 335 365 336 385 q 323 333 335 346 q 292 319 311 321 q 256 317 274 317 q 221 318 239 318 l 221 317 m 279 339 q 317 356 306 333 q 323 372 322 364 q 313 389 324 381 q 297 364 304 376 q 279 339 289 351 m 26 379 q 26 343 10 360 q 36 336 31 339 q 49 342 42 333 q 38 360 43 351 q 26 379 33 368 z "},",":{"ha":172,"x_min":-7,"x_max":132,"o":"m 63 135 q 48 140 53 138 q 38 144 43 142 q 3 217 -7 165 q 61 272 10 269 q 115 247 94 274 q 130 206 128 229 q 126 161 132 183 q 108 120 121 139 q 81 92 96 101 q 14 88 47 71 q 4 95 8 90 q 1 104 0 100 q 6 112 1 108 q 17 118 11 115 q 26 120 21 121 q 35 121 31 119 q 47 127 42 124 q 63 135 53 131 m 33 240 q 19 186 4 217 q 29 173 24 179 q 46 171 35 167 q 40 205 43 189 q 33 240 36 221 m 50 100 q 36 103 43 103 q 22 96 29 104 q 37 89 31 89 q 50 100 43 89 z "},".":{"ha":164,"x_min":0,"x_max":122,"o":"m 60 131 q 17 149 33 131 q 0 196 0 167 q 18 241 0 221 q 61 261 36 261 q 104 244 86 261 q 122 200 122 226 q 104 151 122 171 q 60 131 86 131 m 51 157 q 45 177 47 168 q 40 193 43 186 q 40 210 38 201 q 35 228 42 219 q 21 189 17 208 q 51 157 25 169 z "},"/":{"ha":504,"x_min":0,"x_max":464,"o":"m 0 79 q 6 116 3 97 q 15 151 8 135 q 47 235 31 193 q 81 317 63 276 q 148 463 114 390 q 217 608 182 535 q 283 752 250 681 q 351 896 317 824 q 367 925 358 911 q 385 953 375 939 q 435 971 406 982 q 457 953 450 965 q 461 922 464 940 q 446 853 454 888 q 425 786 438 819 q 367 633 397 708 q 306 479 336 557 q 267 378 286 429 q 226 278 247 328 q 173 156 200 217 q 119 35 146 96 q 99 4 111 15 q 65 -6 86 -7 q 7 39 22 -3 q 3 58 4 49 q 0 79 3 68 m 68 15 q 56 42 61 31 q 46 67 50 54 q 44 92 42 78 q 35 119 46 106 q 23 81 24 100 q 29 43 22 63 q 42 24 33 32 q 68 15 51 15 m 424 957 q 413 953 418 954 q 406 950 408 953 q 360 879 369 921 q 360 873 358 876 q 361 865 361 869 q 377 883 367 871 q 397 910 388 896 q 415 938 407 925 q 424 957 422 951 z "},":":{"ha":186,"x_min":0,"x_max":144,"o":"m 71 404 q 19 425 39 404 q 0 482 0 446 q 22 535 0 511 q 72 558 43 558 q 123 538 101 558 q 144 486 144 518 q 123 428 144 451 q 71 404 101 404 m 61 435 q 53 459 56 449 q 47 478 50 469 q 47 499 44 489 q 42 519 50 508 q 24 473 19 496 q 61 435 29 450 m 71 179 q 19 200 39 179 q 0 257 0 221 q 22 310 0 286 q 72 333 43 333 q 123 313 101 333 q 144 261 144 293 q 123 203 144 226 q 71 179 101 179 m 61 210 q 53 234 56 224 q 47 253 50 244 q 47 274 44 264 q 42 294 50 283 q 24 248 19 271 q 61 210 29 225 z "},";":{"ha":186,"x_min":-1,"x_max":144,"o":"m 71 404 q 19 425 39 404 q 0 482 0 446 q 22 535 0 511 q 72 558 43 558 q 123 538 101 558 q 144 486 144 518 q 123 428 144 451 q 71 404 101 404 m 61 435 q 53 459 56 449 q 47 478 50 469 q 47 499 44 489 q 42 519 50 508 q 24 473 19 496 q 61 435 29 450 m 68 193 q 53 198 58 196 q 43 203 49 200 q 8 275 -1 224 q 67 331 15 328 q 121 306 100 332 q 135 265 133 288 q 132 219 138 242 q 114 178 126 197 q 86 150 101 160 q 19 146 53 129 q 10 153 14 149 q 7 163 6 158 q 12 170 7 167 q 22 176 17 174 q 31 178 26 179 q 40 179 36 178 q 53 185 47 182 q 68 193 58 189 m 39 299 q 25 244 10 275 q 35 231 29 238 q 51 229 40 225 q 45 263 49 247 q 39 299 42 279 m 56 158 q 42 162 49 161 q 28 154 35 163 q 42 147 36 147 q 56 158 49 147 z "},"<":{"ha":346,"x_min":1,"x_max":311,"o":"m 156 375 q 210 333 183 354 q 263 293 236 313 q 276 283 269 288 q 288 271 282 278 q 293 213 311 243 q 242 185 278 178 q 199 200 218 188 q 138 231 168 215 q 79 265 108 247 q 29 303 51 279 q 1 367 1 331 q 32 431 1 403 q 124 511 78 471 q 219 592 171 551 q 256 606 236 607 q 289 589 275 604 q 303 556 303 575 q 290 519 304 536 q 265 492 278 506 q 238 465 251 479 q 201 428 219 446 q 165 390 183 410 q 161 385 163 388 q 156 375 160 382 m 74 303 l 79 308 q 65 331 72 319 q 54 354 58 342 q 51 381 51 367 q 49 411 50 396 q 30 391 33 403 q 28 367 26 379 q 74 303 33 322 m 213 547 q 238 562 225 554 q 264 578 251 569 q 233 582 247 589 q 213 547 219 575 m 253 218 q 200 238 225 244 q 253 218 218 200 z "},">":{"ha":289,"x_min":-8,"x_max":253,"o":"m 140 411 q 128 426 132 422 q 81 466 104 446 q 35 506 58 486 q 21 517 29 508 q 15 558 4 536 q 49 579 25 582 q 75 571 64 579 q 138 529 107 550 q 200 485 169 508 q 247 421 240 454 q 225 346 253 388 q 171 271 200 307 q 114 199 142 235 q 53 175 90 168 q 5 212 18 181 q 13 274 -8 243 q 26 290 18 282 q 40 304 33 297 q 85 351 63 328 q 131 399 107 375 q 140 411 136 407 m 163 415 q 140 383 156 396 q 122 347 125 371 q 156 373 139 354 q 175 404 172 392 q 169 433 179 419 q 142 447 158 447 q 152 431 147 439 q 163 415 157 424 m 24 258 q 15 240 15 247 q 24 219 15 232 q 39 206 32 208 q 61 206 46 203 l 28 256 q 26 257 26 257 q 24 258 25 257 m 49 567 q 28 547 29 556 q 43 528 28 539 q 45 547 44 538 q 49 567 46 556 z "},"=":{"ha":378,"x_min":0,"x_max":336,"o":"m 221 379 q 144 382 182 381 q 68 386 107 383 q 52 387 60 386 q 36 389 44 388 q 0 429 0 396 q 36 469 0 463 q 63 473 50 472 q 90 475 76 474 q 151 478 121 476 q 210 479 181 479 q 251 478 231 479 q 293 476 272 478 q 324 460 313 474 q 335 428 336 447 q 323 396 335 408 q 292 382 311 383 q 256 380 274 379 q 221 381 239 381 l 221 379 m 279 401 q 317 418 306 396 q 323 435 322 426 q 313 451 324 443 q 297 426 304 439 q 279 401 289 414 m 26 442 q 26 406 10 422 q 36 399 31 401 q 49 404 42 396 q 38 422 43 414 q 26 442 33 431 m 221 242 q 144 244 182 243 q 68 249 107 246 q 52 249 60 249 q 36 251 44 250 q 0 292 0 258 q 36 332 0 325 q 63 335 50 335 q 90 338 76 336 q 151 340 121 339 q 210 342 181 342 q 251 341 231 342 q 293 339 272 340 q 324 323 313 336 q 335 290 336 310 q 323 258 335 271 q 292 244 311 246 q 256 242 274 242 q 221 243 239 243 l 221 242 m 279 264 q 317 281 306 258 q 323 297 322 289 q 313 314 324 306 q 297 289 304 301 q 279 264 289 276 m 26 304 q 26 268 10 285 q 36 261 31 264 q 49 267 42 258 q 38 285 43 276 q 26 304 33 293 z "},"?":{"ha":482,"x_min":-6,"x_max":440,"o":"m 142 336 q 155 428 142 385 q 189 515 168 472 q 228 594 208 556 q 267 674 247 633 q 286 718 278 696 q 293 767 294 740 q 285 796 292 788 q 256 803 278 804 q 218 794 235 803 q 145 745 176 775 q 90 675 114 715 q 58 646 78 651 q 19 656 38 640 q 3 707 -6 676 q 14 745 8 726 q 31 781 19 764 q 243 928 103 899 q 311 926 278 935 q 375 899 344 918 q 438 793 431 861 q 440 737 440 765 q 428 682 439 708 q 378 569 404 625 q 336 489 358 529 q 296 407 314 449 q 279 356 285 383 q 267 301 274 329 q 258 272 263 286 q 247 243 254 257 q 225 216 240 224 q 193 211 210 208 q 153 257 158 218 q 147 297 150 276 q 142 336 144 317 m 285 661 q 294 669 292 667 q 300 674 297 671 q 322 717 313 694 q 333 763 332 739 q 329 804 333 783 q 324 817 328 811 q 311 822 321 822 q 310 814 310 818 q 299 711 322 761 q 288 682 293 701 q 286 674 286 679 q 285 661 286 669 m 29 711 q 35 674 18 689 q 48 665 42 668 q 64 671 54 663 q 47 690 56 681 q 29 711 39 700 m 136 96 q 155 143 138 124 q 199 163 172 163 q 242 144 224 163 q 261 101 261 126 q 241 53 261 75 q 196 33 221 32 q 153 51 171 33 q 136 96 136 69 m 160 114 q 158 78 147 96 q 199 63 174 54 q 179 88 189 75 q 160 114 169 100 z "},"@":{"ha":715,"x_min":-25,"x_max":675,"o":"m 433 340 q 426 328 429 333 q 418 319 422 324 q 403 300 411 310 q 386 282 396 290 q 341 255 365 263 q 294 251 317 247 q 251 270 271 256 q 217 310 231 285 q 207 494 171 399 q 239 554 219 526 q 329 615 274 603 q 436 597 385 626 q 464 592 449 590 q 511 546 511 594 q 508 524 510 535 q 507 503 507 514 q 509 463 508 483 q 513 424 510 443 q 515 415 513 419 q 521 406 518 411 q 538 415 532 408 q 547 428 543 421 q 566 471 558 449 q 576 517 574 493 q 580 565 579 540 q 576 615 581 590 q 513 733 564 682 q 464 760 490 756 q 408 760 438 765 q 292 713 342 749 q 207 619 242 676 q 163 314 117 476 q 296 182 192 211 q 353 182 324 174 q 401 200 378 189 q 443 228 424 211 q 463 244 451 238 q 490 253 475 253 q 517 247 506 254 q 538 194 546 229 q 524 164 533 182 q 482 119 507 136 q 429 88 457 103 q 268 52 346 42 q 117 117 190 63 q 6 308 22 186 q 121 713 -25 535 q 253 817 179 782 q 417 856 328 851 q 597 772 525 860 q 652 677 633 728 q 673 574 671 626 q 662 472 675 522 q 624 379 649 422 q 572 321 606 347 q 472 314 526 283 q 453 326 463 319 q 433 340 444 333 m 328 361 q 338 367 333 364 q 344 374 342 369 q 363 399 354 386 q 381 425 371 413 q 392 501 404 461 q 349 521 381 540 q 317 474 324 506 q 318 382 306 426 q 322 372 319 376 q 328 361 325 368 m 171 703 q 197 725 185 714 q 225 746 210 736 q 253 765 239 757 q 282 782 267 774 q 313 798 297 790 q 344 813 329 806 q 343 815 343 814 q 342 818 343 817 q 306 818 322 825 q 275 804 290 811 q 201 756 229 782 q 171 703 174 731 m 67 251 l 63 247 q 65 238 64 243 q 68 229 65 233 q 100 181 83 204 q 140 139 117 158 q 165 122 151 129 q 193 108 179 115 q 200 108 196 107 q 208 111 204 110 q 209 114 208 113 q 210 117 210 115 q 182 135 196 126 q 156 156 168 144 q 133 178 144 167 q 111 203 122 190 q 91 228 100 214 q 67 251 82 242 m 257 529 q 254 531 256 531 q 251 533 253 532 q 241 525 246 529 q 233 514 236 521 q 218 396 204 457 q 226 379 219 388 q 242 371 228 378 q 237 453 235 414 q 257 529 239 492 m 401 415 q 421 436 414 424 q 431 463 428 449 q 430 492 433 478 q 418 517 426 507 q 410 466 414 490 q 401 415 406 442 m 468 375 q 496 335 475 346 q 536 340 517 325 q 503 356 519 349 q 468 375 488 364 m 264 314 q 272 290 265 297 q 289 276 279 282 q 306 272 297 274 q 324 281 314 271 q 294 297 308 289 q 264 314 281 304 z "},"[":{"ha":335,"x_min":0,"x_max":296,"o":"m 136 -21 q 176 -23 157 -22 q 214 -26 194 -24 q 250 -32 235 -26 q 292 -89 296 -44 q 276 -121 290 -108 q 240 -135 263 -133 q 218 -135 229 -136 q 196 -133 207 -133 q 165 -133 181 -133 q 133 -135 149 -133 q 106 -138 119 -136 q 79 -140 93 -140 q 17 -100 33 -140 q 3 -37 3 -68 q 0 150 0 57 q 0 339 0 243 q 0 468 0 394 q 0 618 0 542 q 1 768 0 694 q 3 897 1 842 q 6 976 3 938 q 11 1054 8 1014 q 53 1108 15 1094 q 129 1122 93 1124 l 194 1122 q 210 1122 201 1122 q 225 1119 218 1121 q 266 1094 251 1113 q 275 1051 281 1075 q 251 1013 271 1028 q 207 1000 232 997 q 172 1004 189 1003 q 139 1008 156 1006 l 115 1008 q 126 761 121 893 q 136 494 132 629 q 140 226 140 358 q 136 -21 140 94 m 28 -37 q 56 -100 22 -79 q 72 -108 63 -106 q 93 -103 81 -111 q 74 -87 82 -94 q 57 -74 67 -81 q 46 -54 49 -67 q 28 -37 43 -42 m 93 1093 q 65 1089 74 1096 q 49 1071 56 1082 q 40 1051 42 1061 q 47 1028 38 1042 q 56 1046 53 1038 q 65 1061 60 1054 q 78 1075 71 1068 q 93 1093 85 1082 m 253 1068 q 240 1058 246 1063 q 228 1047 235 1053 q 216 1040 224 1043 q 210 1026 208 1038 q 244 1034 232 1024 q 253 1068 256 1044 m 264 -64 q 250 -83 256 -75 q 238 -101 244 -92 q 265 -94 258 -103 q 264 -64 271 -86 z "},"_":{"ha":669,"x_min":0,"x_max":629,"o":"m 414 24 q 270 28 340 26 q 128 33 200 31 q 98 34 113 33 q 68 36 83 35 q 18 53 36 40 q 0 85 0 65 q 68 133 0 125 q 118 138 93 136 q 169 140 143 139 q 282 143 226 142 q 393 144 338 144 q 471 144 432 144 q 549 142 510 143 q 608 123 586 139 q 626 83 629 107 q 605 44 626 60 q 546 28 583 29 q 479 26 513 25 q 414 26 446 26 l 414 24 m 522 51 q 566 53 550 47 q 593 71 582 58 q 603 92 603 82 q 585 111 604 101 q 555 81 569 96 q 522 51 540 67 m 50 100 q 50 56 19 76 q 68 48 57 51 q 92 54 79 44 q 71 76 81 65 q 50 100 61 88 z "},"^":{"ha":411,"x_min":-1,"x_max":371,"o":"m 203 856 q 167 815 183 832 q 135 782 151 799 q 71 710 106 747 q 19 701 50 682 q 1 722 4 708 q 3 753 -1 736 q 8 765 3 760 q 72 852 42 808 q 140 936 103 896 q 205 965 172 968 q 267 925 238 961 q 313 861 292 894 q 354 796 333 828 q 366 778 361 788 q 368 758 371 768 q 363 737 368 747 q 349 722 357 726 q 327 717 340 715 q 308 725 314 718 q 283 749 293 736 q 261 776 272 763 q 233 813 246 796 q 203 856 219 831 m 42 768 q 18 744 18 750 q 39 719 18 739 q 51 744 47 732 q 42 768 54 757 m 354 765 q 348 769 350 768 q 343 771 346 771 q 335 759 339 764 q 329 747 332 754 q 336 744 331 747 q 340 742 339 743 q 347 754 344 749 q 354 765 350 760 z "},"]":{"ha":335,"x_min":-3,"x_max":293,"o":"m 157 -21 q 153 226 153 94 q 157 494 153 358 q 167 761 161 629 q 178 1008 172 893 l 154 1008 q 121 1004 138 1006 q 86 1000 104 1003 q 42 1013 61 997 q 18 1051 22 1028 q 27 1094 13 1075 q 68 1119 42 1113 q 83 1122 75 1121 q 99 1122 92 1122 l 164 1122 q 240 1108 200 1124 q 282 1054 278 1094 q 288 976 285 1014 q 290 897 290 938 q 292 768 292 842 q 293 618 293 694 q 293 468 293 542 q 293 339 293 394 q 293 150 293 243 q 290 -37 293 57 q 276 -100 290 -68 q 214 -140 260 -140 q 187 -138 200 -140 q 160 -135 174 -136 q 128 -133 144 -133 q 97 -133 113 -133 q 75 -135 86 -133 q 53 -135 64 -136 q 17 -121 31 -133 q 1 -89 3 -108 q 43 -32 -3 -44 q 79 -26 58 -26 q 117 -23 99 -24 q 157 -21 136 -22 m 265 -37 q 247 -54 250 -42 q 236 -74 244 -67 q 219 -87 226 -81 q 200 -103 211 -94 q 222 -108 213 -111 q 238 -100 231 -106 q 265 -37 271 -79 m 200 1093 q 215 1075 208 1082 q 228 1061 222 1068 q 237 1046 233 1054 q 246 1028 240 1038 q 253 1051 256 1042 q 244 1071 251 1061 q 228 1089 238 1082 q 200 1093 219 1096 m 40 1068 q 49 1034 38 1044 q 83 1026 61 1024 q 77 1040 85 1038 q 65 1047 69 1043 q 53 1058 58 1053 q 40 1068 47 1063 m 29 -64 q 28 -94 22 -86 q 56 -101 35 -103 q 43 -83 49 -92 q 29 -64 38 -75 z "},"\\":{"ha":504,"x_min":-3,"x_max":463,"o":"m 463 90 q 459 69 460 79 q 456 51 458 60 q 397 6 442 8 q 363 16 375 4 q 343 46 351 28 q 290 168 317 108 q 236 290 263 228 q 196 390 215 339 q 157 492 176 440 q 96 644 126 568 q 38 797 65 719 q 17 865 25 831 q 1 933 8 899 q 5 965 -3 953 q 28 982 13 976 q 78 964 57 993 q 96 937 88 950 q 111 908 104 924 q 179 764 146 836 q 246 619 213 692 q 315 474 281 546 q 382 328 349 403 q 416 247 400 288 q 447 164 432 206 q 457 127 454 146 q 463 90 460 108 m 394 26 q 420 35 411 28 q 433 54 429 43 q 440 92 440 74 q 428 131 439 111 q 419 103 417 117 q 417 78 421 89 q 407 53 413 65 q 394 26 401 42 m 39 969 q 48 949 40 963 q 65 922 56 936 q 85 894 75 907 q 101 876 94 882 q 103 885 101 881 q 103 892 104 889 q 85 930 97 913 q 57 963 74 947 q 49 966 54 965 q 39 969 44 967 z "},"~":{"ha":458,"x_min":-3,"x_max":418,"o":"m 296 263 q 223 276 256 263 q 165 322 190 290 q 145 338 151 338 q 122 328 139 339 q 99 309 108 321 q 82 285 90 297 q 31 263 61 254 q 1 308 -3 274 q 4 321 1 315 q 51 394 24 361 q 122 444 79 426 q 215 436 171 464 q 242 417 229 428 q 267 396 254 407 q 276 387 272 392 q 286 379 281 382 q 325 381 306 365 q 335 389 331 385 q 346 396 340 393 q 399 396 375 415 q 414 373 410 388 q 411 344 418 358 q 366 284 392 308 q 296 263 340 260 m 185 347 q 182 345 183 346 q 179 343 181 344 q 181 338 181 340 q 183 332 181 335 q 235 284 200 300 q 306 275 271 268 q 322 281 314 278 q 331 294 329 283 q 290 297 310 297 q 250 304 269 297 q 216 324 232 311 q 185 347 200 336 m 63 281 q 40 294 50 288 q 18 307 29 300 q 30 279 21 285 q 63 281 39 274 z "},"}":{"ha":474,"x_min":-3,"x_max":433,"o":"m 242 511 q 232 528 236 519 q 224 543 228 536 q 199 590 210 567 q 183 639 189 614 q 168 716 175 678 q 154 793 161 754 q 149 835 151 810 q 143 888 146 861 q 138 941 140 915 q 131 983 135 967 q 110 1022 125 1011 q 67 1031 94 1033 q 19 1057 31 1028 q 17 1086 14 1071 q 32 1111 21 1101 q 54 1125 44 1121 q 133 1121 92 1140 q 222 1039 190 1092 q 249 976 238 1013 q 270 901 261 940 q 286 825 279 863 q 299 758 293 788 q 317 676 307 717 q 343 596 326 636 q 366 558 353 574 q 403 533 379 542 q 426 514 419 528 q 431 483 433 500 q 386 446 424 449 l 349 446 q 300 411 310 446 q 289 371 290 390 q 281 236 283 304 q 280 187 281 215 q 278 128 279 158 q 276 70 278 99 q 272 22 275 42 q 223 -78 261 -37 q 126 -135 185 -119 q 42 -131 83 -144 q 8 -104 19 -124 q 3 -65 -3 -85 q 63 -35 11 -28 q 128 0 110 -39 q 144 57 140 26 q 148 116 146 82 q 152 185 150 150 q 156 255 154 221 q 160 314 157 289 q 182 419 164 369 q 242 511 200 468 m 107 1097 q 140 1072 124 1083 q 168 1044 156 1060 q 191 1011 182 1029 q 211 975 200 993 q 190 1051 225 1001 q 107 1097 153 1104 m 240 35 q 207 -24 224 4 q 163 -75 190 -53 q 199 -67 186 -78 q 221 -42 211 -57 q 240 -6 233 -25 q 240 35 247 13 m 393 514 q 380 490 386 501 q 367 468 374 479 q 393 514 415 468 m 60 -94 q 40 -76 49 -85 q 24 -61 32 -68 q 60 -94 8 -99 z "},"{":{"ha":474,"x_min":-1,"x_max":435,"o":"m 190 511 q 250 419 232 468 q 272 314 268 369 q 276 255 274 289 q 280 185 278 221 q 283 116 282 150 q 288 57 285 82 q 304 0 292 26 q 369 -35 322 -39 q 429 -65 421 -28 q 424 -104 435 -85 q 390 -131 413 -124 q 306 -135 349 -144 q 209 -78 247 -119 q 160 22 171 -37 q 156 70 157 42 q 153 128 154 99 q 152 187 153 158 q 151 236 151 215 q 143 371 149 304 q 132 411 142 390 q 83 446 122 446 l 46 446 q 1 483 8 449 q 6 514 -1 500 q 29 533 13 528 q 66 558 53 542 q 89 596 79 574 q 115 676 106 636 q 133 758 125 717 q 146 825 139 788 q 162 901 153 863 q 183 976 171 940 q 210 1039 194 1013 q 299 1121 242 1092 q 378 1125 340 1140 q 400 1111 388 1121 q 415 1086 411 1101 q 413 1057 418 1071 q 365 1031 401 1028 q 322 1022 338 1033 q 301 983 307 1011 q 294 941 297 967 q 289 888 292 915 q 283 835 286 861 q 278 793 281 810 q 264 716 271 754 q 249 639 257 678 q 233 590 243 614 q 208 543 222 567 q 200 528 204 536 q 190 511 196 519 m 325 1097 q 242 1051 279 1104 q 221 975 207 1001 q 241 1011 232 993 q 264 1044 250 1029 q 292 1072 276 1060 q 325 1097 308 1083 m 192 35 q 192 -6 185 13 q 211 -42 199 -25 q 233 -67 221 -57 q 269 -75 246 -78 q 225 -24 242 -53 q 192 35 208 4 m 39 514 q 65 468 17 468 q 52 490 58 479 q 39 514 46 501 m 372 -94 q 408 -61 424 -99 q 392 -76 400 -68 q 372 -94 383 -85 z "},"|":{"ha":188,"x_min":0,"x_max":146,"o":"m 1 449 q 5 645 0 550 q 17 836 10 740 q 22 909 19 872 q 28 982 25 946 q 67 1022 31 1022 q 108 985 106 1025 q 129 764 121 874 q 134 688 132 726 q 139 611 136 650 l 143 519 q 145 415 144 467 q 144 310 146 363 q 140 236 144 274 q 133 163 136 199 q 126 82 129 122 q 119 1 122 42 q 103 -35 117 -22 q 69 -50 90 -49 q 32 -37 46 -51 q 15 1 18 -24 q 12 53 13 28 q 10 106 11 79 q 5 181 7 143 q 1 257 3 219 q 0 328 0 293 q 0 400 0 364 q 1 428 0 415 q 1 449 1 440 m 43 61 q 47 -6 22 31 q 64 -21 56 -18 q 88 -19 72 -24 q 73 -1 81 -10 q 60 17 65 7 q 51 38 54 26 q 43 61 47 49 m 50 944 q 64 974 57 961 q 72 1001 71 986 q 48 982 53 994 q 50 944 43 969 z "},"`":{"ha":158,"x_min":0,"x_max":119,"o":"m 22 854 q 34 850 29 851 q 43 846 39 849 q 81 815 63 831 q 111 776 99 799 q 111 751 119 761 q 88 746 103 742 q 43 771 64 750 q 22 791 32 781 q 4 813 13 801 q 1 826 1 818 q 3 839 0 833 q 12 848 6 844 q 22 854 18 851 m 67 781 q 101 763 71 742 q 85 771 93 767 q 67 781 76 775 m 14 819 q 17 843 28 832 q 14 819 1 836 z "},"":{"ha":492,"x_min":-6,"x_max":451,"o":"m 149 -126 q 177 -135 164 -132 q 201 -144 190 -137 q 222 -167 217 -153 q 225 -199 228 -182 q 210 -231 222 -218 q 182 -247 197 -244 q 122 -256 153 -254 q 60 -235 92 -257 q 1 -125 6 -194 q -3 -27 0 -76 q -6 72 -6 22 q -6 120 -6 85 q -5 201 -6 156 q -3 298 -4 247 q -1 394 -3 349 q 1 475 0 440 q 3 524 1 510 q 6 574 4 549 q 10 625 8 599 q 13 681 13 653 q 15 738 13 710 q 19 768 17 753 q 25 799 22 783 q 48 835 29 821 q 89 847 67 849 q 130 831 113 847 q 150 792 147 815 q 158 701 156 749 q 160 672 160 686 q 161 642 161 657 q 160 561 161 601 q 158 481 160 521 q 158 424 158 463 q 157 335 157 385 q 156 229 157 285 q 155 124 156 174 q 154 34 154 74 q 153 -22 154 -6 q 151 -69 153 -46 q 149 -115 150 -92 l 149 -126 m 135 -232 q 135 -230 135 -231 q 136 -226 136 -229 q 132 -224 135 -226 q 76 -183 97 -208 q 44 -121 56 -157 q 41 -117 43 -118 q 36 -114 39 -117 q 33 -119 35 -117 q 32 -124 32 -121 q 53 -187 35 -156 q 110 -231 72 -218 q 122 -233 115 -233 q 135 -232 128 -232 m 113 814 q 88 821 103 822 q 63 808 74 819 q 42 769 47 793 q 49 732 38 746 q 58 758 54 746 q 68 783 63 771 q 86 803 75 797 q 113 814 97 810 m 372 165 q 401 157 388 160 q 425 147 414 154 q 446 124 440 139 q 449 93 451 110 q 433 60 446 74 q 406 44 421 47 q 346 36 376 38 q 283 57 315 35 q 225 167 229 97 q 221 265 224 215 q 218 364 218 314 q 221 444 218 404 q 226 524 224 483 q 230 574 228 549 q 233 625 232 599 q 236 681 236 653 q 239 738 236 710 q 243 768 240 753 q 249 799 246 783 q 272 835 253 821 q 313 847 290 849 q 353 831 336 847 q 374 792 371 815 q 382 701 379 749 q 384 672 383 686 q 385 642 385 657 q 384 561 385 601 q 382 481 383 521 q 380 375 381 428 q 376 269 379 322 q 375 223 376 246 q 372 176 374 200 l 372 165 m 358 60 q 359 62 358 61 q 360 65 360 63 q 356 68 358 65 q 300 109 321 83 q 268 171 279 135 q 265 174 267 174 q 260 178 263 175 q 257 173 258 175 q 256 168 256 171 q 277 105 258 136 q 333 61 296 74 q 345 59 339 58 q 358 60 351 60 m 336 814 q 312 821 326 822 q 286 808 297 819 q 266 769 271 793 q 272 732 261 746 q 282 758 278 746 q 292 783 286 771 q 310 803 299 797 q 336 814 321 810 z "},"A":{"ha":660,"x_min":0,"x_max":619,"o":"m 468 157 q 391 151 428 157 q 318 139 354 146 q 226 119 272 129 q 133 100 179 110 q 110 76 111 96 q 107 62 108 69 q 103 47 106 54 q 47 7 90 3 q 16 22 28 8 q 1 56 4 35 q 0 92 0 74 q 3 128 0 110 q 22 319 13 219 q 51 515 31 418 q 108 703 71 613 q 210 865 144 793 q 251 904 229 888 q 303 928 274 921 q 392 913 347 939 q 449 867 425 893 q 489 807 472 840 q 554 626 532 724 q 593 438 576 529 q 614 266 608 353 q 615 92 619 179 q 612 68 614 81 q 606 44 610 56 q 551 10 592 10 q 497 44 511 10 q 490 67 493 56 q 485 89 488 78 q 476 122 481 106 q 468 157 472 139 m 317 767 q 308 757 313 761 q 299 747 303 753 q 226 615 254 689 q 176 447 194 532 q 144 274 158 361 q 145 268 144 271 q 146 258 146 265 q 433 335 283 318 l 433 347 q 405 484 418 417 q 376 619 392 551 q 360 678 369 649 q 342 735 351 707 q 333 753 339 744 q 317 767 328 761 m 213 811 q 245 840 229 826 q 278 868 261 854 q 314 888 293 883 q 354 900 335 893 q 310 905 331 910 q 269 888 289 900 q 227 849 243 869 q 213 811 211 829 m 500 146 q 502 100 499 122 q 518 58 506 78 q 531 45 524 51 q 544 33 538 39 q 558 29 550 31 q 575 35 565 28 q 543 55 556 43 q 523 82 531 67 q 510 113 515 97 q 500 146 506 129 m 24 119 q 25 43 4 83 q 67 28 38 15 q 44 45 51 35 q 34 68 38 56 q 28 94 31 81 q 24 119 26 107 z "},"B":{"ha":756,"x_min":0,"x_max":719,"o":"m 175 542 l 183 542 q 393 656 303 578 q 418 683 407 668 q 439 714 429 699 q 443 781 454 743 q 396 835 432 818 q 339 851 368 849 q 279 850 310 853 q 258 847 268 849 q 238 843 249 844 q 203 849 218 840 q 183 875 189 858 q 183 910 176 894 q 210 935 190 926 q 232 942 221 939 q 254 947 243 946 q 315 952 285 950 q 376 951 346 954 q 503 909 451 949 q 575 806 556 869 q 558 610 608 703 q 550 592 553 599 q 560 586 556 589 q 568 581 564 583 q 665 494 629 549 q 710 378 701 440 q 702 251 719 315 q 639 136 685 188 q 524 47 588 78 q 386 -1 460 15 q 171 -6 279 -26 q 13 126 51 15 q 3 179 3 150 q 1 284 1 232 q 0 389 0 336 q 1 479 0 433 q 4 571 1 525 q 21 814 11 694 q 28 849 24 832 q 38 883 32 867 q 57 911 43 897 q 101 925 74 932 q 136 888 132 917 q 142 853 139 871 q 146 817 144 836 q 159 683 153 750 q 172 547 165 615 q 175 542 172 547 m 176 296 l 175 296 q 178 247 176 272 q 181 199 179 222 q 187 173 183 178 q 211 168 190 168 q 262 169 236 168 q 311 174 288 171 q 409 198 363 181 q 496 250 456 215 q 532 301 522 272 q 536 345 540 324 q 519 383 532 367 q 490 409 507 400 q 454 417 472 418 q 418 413 436 414 q 381 410 400 413 q 286 385 332 403 q 192 354 240 368 q 176 333 175 350 l 176 296 m 510 435 l 510 429 q 515 426 513 428 q 519 422 517 424 q 549 390 539 408 q 563 349 560 372 q 563 313 565 329 q 553 279 560 296 q 547 260 550 271 q 554 258 551 260 q 580 314 574 285 q 575 375 586 343 q 510 435 561 422 m 38 150 q 35 143 35 142 q 75 69 46 97 q 144 21 104 40 q 154 19 149 19 q 164 24 160 18 q 113 58 136 42 q 71 99 92 75 q 53 123 61 110 q 38 150 46 136 m 449 829 q 459 803 454 815 q 467 778 464 790 q 443 679 475 724 q 438 670 440 675 q 432 660 435 665 q 471 701 458 676 q 485 750 483 725 q 476 797 486 775 q 449 829 467 818 m 38 808 q 51 824 49 815 q 56 840 53 833 q 73 877 63 860 q 107 901 83 894 l 107 907 q 87 908 96 913 q 71 897 78 904 q 46 858 51 881 q 38 808 40 836 m 253 861 q 236 874 244 868 q 224 886 228 879 q 221 904 221 894 q 221 924 221 914 q 208 878 194 904 q 253 861 221 854 z "},"C":{"ha":651,"x_min":-12,"x_max":614,"o":"m 197 461 q 216 331 200 394 q 264 210 232 268 q 292 177 274 190 q 331 159 310 164 q 375 160 351 154 q 419 186 399 167 q 465 241 447 211 q 496 303 482 271 q 513 328 503 318 q 538 342 522 339 q 580 334 561 347 q 606 297 599 321 q 604 236 614 264 q 579 176 596 203 q 536 115 560 143 q 481 63 513 86 q 247 26 375 -18 q 97 131 151 61 q 19 297 43 201 q 11 547 -12 428 q 108 776 35 665 q 181 858 140 824 q 276 913 222 893 q 449 911 364 942 q 519 867 489 896 q 564 794 549 839 q 564 739 574 765 q 522 706 553 707 q 474 732 489 701 q 468 743 471 735 q 442 772 457 763 q 403 785 426 782 q 279 728 324 789 q 233 644 247 689 q 209 563 218 604 q 197 476 200 521 l 197 461 m 265 53 q 221 79 242 68 q 181 106 200 90 q 144 138 161 121 q 108 171 128 154 q 132 131 115 151 q 171 92 149 110 q 218 64 193 75 q 265 53 243 53 m 300 892 q 265 885 285 893 q 225 865 244 878 q 191 838 206 853 q 172 811 176 824 q 235 851 204 831 q 300 892 267 871 m 581 314 q 529 319 550 344 q 513 297 519 310 q 499 274 506 285 q 498 267 497 271 q 499 258 499 264 q 516 277 508 267 q 532 297 524 288 q 551 311 540 306 q 581 314 563 317 m 549 744 q 523 741 533 739 q 504 749 513 743 q 488 765 496 756 q 472 781 481 774 q 485 749 475 761 q 506 731 494 736 q 528 729 517 726 q 549 744 540 732 z "},"":{"ha":2382,"x_min":8,"x_max":2358,"o":"m 913 874 q 946 876 929 875 q 978 879 963 876 q 1010 874 996 881 q 1032 857 1024 868 q 1044 832 1040 846 q 1044 806 1047 818 q 1016 768 1038 782 q 972 760 994 754 q 947 762 960 763 q 918 761 933 761 q 921 743 919 751 q 922 728 922 735 l 922 681 l 925 517 q 929 433 926 475 q 933 350 932 392 q 935 243 935 297 q 935 136 936 189 q 933 97 935 117 q 921 57 932 76 q 869 13 901 25 q 804 22 836 1 q 764 94 764 47 q 762 207 761 151 q 764 318 763 263 q 764 374 764 346 q 765 431 764 403 l 774 590 q 777 640 775 615 q 782 689 779 664 l 786 746 q 787 753 788 749 q 786 761 786 757 q 740 759 763 761 q 701 757 717 757 q 657 782 671 757 l 650 794 q 572 840 629 847 q 502 820 535 835 q 438 786 469 806 q 362 731 397 761 q 297 661 326 700 q 264 613 281 640 q 256 575 256 596 q 297 510 254 525 q 371 483 333 496 q 444 458 408 471 q 527 427 486 443 q 607 388 568 411 q 658 351 635 371 q 699 303 681 331 q 725 181 735 244 q 663 75 715 118 q 425 -12 558 -12 q 275 24 347 -12 q 217 90 229 46 q 233 178 206 133 q 311 265 265 231 l 340 288 l 310 297 q 253 315 282 307 q 194 333 224 322 q 126 366 158 347 q 68 417 93 385 q 38 589 8 494 q 77 671 53 633 q 131 743 101 708 q 249 852 185 806 q 390 929 314 899 q 491 959 440 949 q 596 961 542 969 q 660 947 628 956 q 715 910 692 938 q 728 893 722 901 q 739 874 735 885 q 763 874 751 874 q 785 876 774 875 q 790 881 788 876 q 794 889 793 885 q 797 908 797 899 q 799 928 796 918 q 818 960 803 947 q 858 969 833 972 q 890 953 876 967 q 906 918 903 939 l 913 874 m 1629 22 q 1684 17 1657 19 q 1736 13 1711 15 q 1776 8 1756 6 l 1785 8 l 1814 6 q 2001 -27 1910 -6 q 2179 -92 2093 -49 q 2253 -137 2219 -111 q 2311 -197 2286 -162 q 2349 -273 2339 -233 q 2351 -350 2358 -312 q 2322 -421 2344 -387 q 2261 -478 2299 -454 q 2171 -522 2218 -506 q 2075 -547 2124 -537 q 1956 -567 2015 -560 q 1835 -572 1896 -574 q 1763 -572 1799 -572 q 1690 -569 1726 -572 q 1490 -543 1589 -562 q 1297 -481 1392 -524 q 1221 -424 1254 -461 q 1178 -350 1189 -390 q 1172 -264 1167 -310 q 1183 -235 1175 -249 q 1204 -210 1192 -221 q 1236 -196 1219 -197 q 1267 -206 1253 -194 q 1286 -233 1282 -217 q 1283 -267 1290 -249 q 1280 -293 1278 -285 q 1296 -312 1282 -301 q 1323 -328 1310 -321 q 1351 -342 1336 -336 q 1444 -371 1397 -360 q 1539 -390 1490 -382 q 1650 -402 1596 -399 q 1763 -408 1704 -406 q 1872 -406 1817 -411 q 1983 -393 1926 -400 q 2056 -380 2019 -387 q 2129 -358 2093 -372 q 2155 -347 2142 -353 q 2181 -333 2168 -340 q 2190 -278 2214 -312 q 2178 -264 2185 -269 q 2165 -251 2172 -258 q 2104 -210 2138 -226 q 2035 -179 2071 -193 q 1806 -121 1922 -137 q 1708 -108 1757 -114 q 1608 -100 1658 -103 q 1611 -60 1610 -81 q 1613 -21 1613 -40 l 1613 21 q 1629 22 1618 22 m 2332 310 q 2326 264 2329 286 q 2319 218 2324 242 q 2294 181 2314 194 q 2250 169 2275 167 q 2214 189 2231 171 q 2194 228 2197 207 q 2182 289 2190 260 q 2178 294 2182 292 q 2171 297 2174 297 q 2107 292 2139 294 q 2044 279 2075 289 q 2004 233 2013 269 q 1983 172 1997 201 q 1962 151 1976 157 q 1931 147 1947 146 q 1881 186 1894 151 q 1875 222 1874 204 q 1881 257 1876 239 q 1910 367 1896 311 q 1943 476 1925 422 q 1982 580 1960 529 q 2036 676 2004 631 q 2142 742 2075 738 q 2218 713 2182 743 q 2278 622 2258 678 q 2299 547 2290 585 q 2311 469 2308 508 q 2319 415 2314 442 q 2328 360 2324 388 l 2331 310 l 2332 310 m 1578 -124 q 1606 -132 1593 -129 q 1631 -142 1619 -135 q 1654 -197 1658 -158 q 1639 -230 1651 -217 q 1611 -246 1626 -243 q 1551 -254 1582 -253 q 1488 -233 1519 -256 q 1429 -122 1433 -193 q 1425 -24 1428 -74 q 1422 75 1422 25 q 1422 123 1422 88 q 1423 204 1422 158 q 1424 301 1424 250 q 1426 397 1425 351 q 1428 478 1428 443 q 1431 526 1429 513 q 1434 576 1432 551 q 1438 628 1436 601 q 1440 684 1440 656 q 1443 740 1440 713 q 1447 771 1444 756 q 1453 801 1450 786 q 1476 838 1457 824 q 1517 850 1494 851 q 1558 834 1540 850 q 1579 794 1576 818 q 1588 704 1585 751 q 1590 674 1589 689 q 1590 644 1590 660 q 1590 564 1590 604 q 1588 483 1589 524 q 1587 426 1588 465 q 1586 338 1586 388 q 1585 232 1586 288 q 1584 126 1585 176 q 1583 37 1583 76 q 1582 -19 1582 -3 q 1581 -66 1582 -43 q 1578 -112 1579 -89 l 1578 -124 m 1399 -100 q 1338 -101 1368 -100 q 1278 -106 1308 -103 q 1155 -116 1215 -111 q 1032 -129 1094 -121 q 834 -156 932 -140 q 640 -194 736 -171 q 434 -244 536 -218 q 228 -299 332 -271 q 203 -306 215 -301 q 181 -314 192 -310 l 169 -319 q 134 -317 150 -324 q 111 -296 118 -311 q 112 -262 104 -279 q 139 -239 119 -246 q 219 -208 179 -224 q 300 -181 260 -193 q 551 -115 426 -144 q 803 -60 675 -85 q 996 -26 899 -40 q 1190 -1 1093 -11 q 1393 15 1294 10 l 1399 -100 m 1801 168 q 1830 160 1817 163 q 1854 150 1843 157 q 1875 127 1869 142 q 1878 96 1881 113 q 1863 63 1875 76 q 1835 47 1850 50 q 1775 39 1806 40 q 1713 60 1744 38 q 1654 169 1658 100 q 1650 267 1653 218 q 1647 367 1647 317 q 1650 447 1647 407 q 1656 526 1653 486 q 1659 576 1657 551 q 1663 628 1661 601 q 1665 684 1665 656 q 1668 740 1665 713 q 1672 771 1669 756 q 1678 801 1675 786 q 1701 838 1682 824 q 1742 850 1719 851 q 1783 834 1765 850 q 1803 794 1800 818 q 1811 704 1808 751 q 1813 674 1813 689 q 1814 644 1814 660 q 1813 564 1814 604 q 1811 483 1813 524 q 1809 378 1810 431 q 1806 272 1808 325 q 1804 226 1806 249 q 1801 179 1803 203 l 1801 168 m 1129 178 q 1088 175 1108 176 q 1047 175 1068 174 q 1005 190 1024 175 q 985 232 986 204 q 994 266 983 251 q 1022 288 1004 281 q 1097 308 1057 301 q 1161 320 1129 315 q 1225 328 1193 325 q 1278 329 1253 331 q 1331 325 1304 328 q 1370 299 1354 322 q 1385 253 1386 276 q 1363 207 1382 226 q 1318 185 1343 188 q 1224 180 1271 182 q 1129 175 1176 178 l 1129 178 m 1279 756 q 1309 753 1294 756 q 1338 740 1324 750 q 1368 682 1371 718 q 1325 626 1365 640 q 1290 618 1307 621 q 1253 613 1272 615 q 1209 605 1231 608 q 1165 600 1188 601 q 1117 595 1142 599 q 1069 589 1093 592 q 1021 601 1040 585 q 997 647 1001 618 q 1003 680 994 661 q 1028 707 1011 699 q 1074 726 1050 719 q 1122 736 1097 733 q 1177 744 1150 740 q 1232 751 1204 749 q 1256 754 1243 754 q 1279 756 1268 754 m 997 424 q 1032 482 997 468 q 1136 503 1082 500 q 1242 515 1190 507 q 1270 513 1256 518 q 1297 499 1285 508 q 1315 477 1308 490 q 1322 450 1322 464 q 1308 411 1321 426 q 1265 390 1294 396 q 1225 385 1246 386 q 1185 381 1204 383 q 1147 376 1165 378 q 1108 374 1128 375 q 1056 378 1082 374 q 1038 381 1047 379 q 1021 388 1029 383 q 1003 405 1008 394 q 997 424 997 415 m 321 132 q 326 126 325 126 q 331 124 329 124 q 450 126 394 108 q 556 182 506 143 q 553 213 575 197 q 524 231 539 224 q 494 249 510 239 q 463 246 478 257 q 413 215 438 231 q 364 182 388 199 q 321 132 335 161 m 2067 419 q 2069 418 2069 417 q 2151 426 2113 421 q 2156 429 2154 426 q 2157 435 2157 432 l 2144 522 l 2135 558 q 2095 490 2113 524 q 2067 419 2078 456 m 169 390 q 172 397 169 394 l 140 426 q 86 521 94 465 q 85 548 83 535 q 83 575 86 561 q 83 581 83 578 q 82 588 82 585 q 69 520 67 553 q 88 456 72 488 q 144 399 107 421 q 156 394 150 396 q 169 390 163 393 m 1215 -249 q 1201 -277 1204 -265 q 1200 -310 1199 -289 q 1251 -411 1201 -371 q 1259 -415 1256 -414 q 1269 -417 1263 -415 q 1248 -376 1260 -394 q 1229 -339 1236 -358 q 1220 -297 1222 -319 q 1215 -249 1218 -274 m 789 171 q 788 169 789 169 q 792 134 790 151 q 800 99 794 117 q 839 51 807 64 q 861 49 851 47 q 864 60 875 49 l 856 64 q 817 108 825 76 q 813 130 814 119 q 808 151 811 140 l 801 190 q 794 196 801 192 l 790 189 q 790 180 790 185 q 789 171 790 175 m 1564 -231 q 1565 -228 1564 -229 q 1565 -225 1565 -228 q 1561 -222 1564 -225 q 1505 -181 1526 -207 q 1472 -118 1483 -154 q 1469 -115 1471 -115 q 1464 -111 1467 -114 q 1461 -116 1463 -114 q 1460 -121 1460 -118 q 1481 -185 1463 -153 q 1539 -229 1500 -217 q 1551 -231 1544 -232 q 1564 -231 1557 -231 m 1788 63 q 1788 65 1788 64 q 1789 68 1789 65 q 1785 71 1788 68 q 1729 112 1750 86 q 1697 174 1708 138 q 1694 177 1696 176 q 1689 181 1692 178 q 1686 176 1688 178 q 1685 171 1685 174 q 1706 108 1688 139 q 1763 64 1725 76 q 1774 62 1768 61 q 1788 63 1781 63 m 2215 -232 q 2217 -237 2217 -235 q 2218 -242 2217 -240 q 2207 -335 2244 -293 q 2201 -342 2203 -337 q 2196 -351 2199 -346 q 2233 -333 2219 -350 q 2250 -293 2247 -317 q 2243 -253 2251 -269 q 2215 -232 2235 -237 m 290 47 q 264 90 272 76 q 255 116 256 104 q 258 142 254 128 q 265 183 261 156 q 240 148 246 172 q 242 96 233 124 q 290 47 256 47 m 2042 621 q 2062 644 2053 632 q 2082 667 2071 656 q 2106 687 2093 678 q 2135 707 2119 696 q 2106 705 2118 711 q 2083 690 2094 699 q 2053 662 2067 678 q 2038 624 2040 646 l 2042 621 m 1542 817 q 1517 824 1532 825 q 1490 811 1503 822 q 1470 772 1475 796 q 1476 735 1465 749 l 1496 786 q 1515 806 1503 800 q 1542 817 1526 813 m 1765 817 q 1741 824 1756 825 q 1715 811 1726 822 q 1695 772 1700 796 q 1701 735 1690 749 l 1721 786 q 1739 806 1728 800 q 1765 817 1750 813 m 1357 267 q 1356 273 1356 269 q 1353 281 1356 276 q 1349 286 1351 283 q 1343 292 1346 289 q 1340 285 1342 289 q 1339 279 1339 282 q 1334 250 1339 264 q 1317 225 1329 236 q 1313 219 1314 222 q 1311 214 1313 217 q 1324 211 1319 211 q 1357 267 1357 222 m 125 -262 q 144 -292 132 -285 q 172 -301 157 -299 q 192 -301 182 -304 q 210 -285 201 -299 q 186 -281 196 -282 q 167 -278 176 -281 q 148 -272 157 -276 q 125 -262 139 -268 m 1067 196 q 1061 201 1063 199 q 1057 204 1060 203 q 1026 253 1031 224 l 1021 263 q 1017 258 1019 260 q 1014 253 1015 256 q 1029 200 1007 225 q 1046 193 1036 193 q 1067 196 1056 193 m 2219 282 q 2219 228 2208 256 q 2232 204 2225 214 q 2254 190 2239 194 q 2260 190 2257 189 q 2267 192 2264 192 q 2267 194 2267 193 q 2268 196 2268 194 q 2234 234 2242 211 q 2219 282 2226 257 m 575 167 q 601 219 613 188 q 564 244 593 246 q 577 224 572 232 q 583 208 582 215 q 581 192 583 201 q 575 167 579 183 m 1939 169 q 1919 267 1903 210 q 1900 237 1904 257 q 1903 197 1896 217 q 1939 169 1913 167 m 1285 486 q 1279 444 1286 463 q 1258 411 1272 426 q 1294 436 1285 408 q 1298 464 1300 450 q 1285 486 1296 478 m 1011 843 q 999 811 1008 824 q 975 789 990 799 q 974 786 974 789 q 975 782 974 783 q 982 779 978 779 q 1012 799 999 779 q 1019 835 1025 819 q 1016 839 1018 838 q 1011 843 1014 840 m 1026 671 q 1028 635 1014 658 q 1044 614 1035 619 q 1067 611 1053 608 l 1026 671 m 1299 644 q 1306 643 1301 643 q 1334 667 1322 646 q 1340 703 1346 688 q 1338 706 1339 704 q 1333 707 1336 708 q 1328 701 1328 707 q 1300 649 1324 669 q 1299 647 1299 649 q 1299 644 1300 646 m 1036 461 q 1024 440 1026 453 q 1028 417 1022 428 q 1065 396 1039 392 q 1042 425 1051 410 q 1036 461 1033 440 m 675 818 q 663 833 668 825 q 653 847 658 840 q 646 842 647 844 q 654 822 650 832 q 665 801 658 811 q 675 790 669 794 q 688 782 681 786 q 690 781 689 782 q 692 781 690 781 q 676 806 681 792 q 675 818 675 810 m 825 904 q 842 925 833 915 q 857 946 850 935 q 857 951 860 949 q 850 954 854 954 q 838 947 843 953 q 828 934 832 942 q 823 918 824 926 q 825 904 822 910 z "}}}
